<?xml version="1.0" encoding="utf-8"?>
<!-- Generator: Adobe Illustrator 26.0.3, SVG Export Plug-In . SVG Version: 6.00 Build 0)  -->
<!DOCTYPE svg PUBLIC "-//W3C//DTD SVG 1.1//EN" "http://www.w3.org/Graphics/SVG/1.1/DTD/svg11.dtd" [
	<!ENTITY ns_extend "http://ns.adobe.com/Extensibility/1.0/">
	<!ENTITY ns_ai "http://ns.adobe.com/AdobeIllustrator/10.0/">
	<!ENTITY ns_graphs "http://ns.adobe.com/Graphs/1.0/">
	<!ENTITY ns_vars "http://ns.adobe.com/Variables/1.0/">
	<!ENTITY ns_imrep "http://ns.adobe.com/ImageReplacement/1.0/">
	<!ENTITY ns_sfw "http://ns.adobe.com/SaveForWeb/1.0/">
	<!ENTITY ns_custom "http://ns.adobe.com/GenericCustomNamespace/1.0/">
	<!ENTITY ns_adobe_xpath "http://ns.adobe.com/XPath/1.0/">
]>
<svg version="1.1" id="Слой_1" xmlns:x="&ns_extend;" xmlns:i="&ns_ai;" xmlns:graph="&ns_graphs;"
	 xmlns="http://www.w3.org/2000/svg" xmlns:xlink="http://www.w3.org/1999/xlink" x="0px" y="0px" width="361.8px" height="394.3px"
	 viewBox="0 0 361.8 394.3" style="enable-background:new 0 0 361.8 394.3;" xml:space="preserve">
<style type="text/css">
	.st0{fill:#FFFFFF;}
	.st1{fill:#FF6900;}
	.st2{fill:#FCA500;}
	.st3{fill:#8F3F1D;}
	.st4{fill:#632E17;}
	.st5{fill:#9D7B51;}
	.st6{fill:none;stroke:#2D1F04;stroke-width:2.62;stroke-linecap:round;stroke-linejoin:round;stroke-miterlimit:10;}
	.st7{opacity:0.23;fill:#3F2719;}
	.st8{opacity:0.23;fill:none;stroke:#3F2719;stroke-width:2.62;stroke-linecap:round;stroke-linejoin:round;stroke-miterlimit:10;}
	.st9{fill:#CAA77A;}
	.st10{fill:#B6B1AE;}
	.st11{fill:#FFDB1F;}
	.st12{opacity:0.2255;fill:#3F2719;}
	.st13{fill:#FFDBAF;}
	.st14{fill:none;stroke:#9D7B51;stroke-width:3.87;stroke-linecap:round;stroke-linejoin:round;stroke-miterlimit:10;}
	.st15{fill:none;stroke:#2D1F04;stroke-width:7.6;stroke-linecap:round;stroke-linejoin:round;stroke-miterlimit:10;}
	.st16{opacity:0.948;fill:none;stroke:#2D1F04;stroke-width:7.6;stroke-linecap:round;stroke-linejoin:round;stroke-miterlimit:10;}
	.st17{fill:#251707;}
	.st18{fill:#2D1F04;}
	.st19{fill:none;stroke:#2D1F04;stroke-width:2.6;stroke-linecap:round;stroke-linejoin:round;stroke-miterlimit:10;}
	.st20{fill:#FCBC3D;}
</style>
<metadata>
	<sfw  xmlns="&ns_sfw;">
		<slices></slices>
		<sliceSourceBounds  bottomLeftOrigin="true" height="394.3" width="361.8" x="788.2" y="-737.2"></sliceSourceBounds>
	</sfw>
</metadata>
<path class="st0" d="M343.2,227c-2.8-3.2-5.9-3.9-8-3.9c-4.3,0-9.2,3-9.7,9.7c-0.2,3.1-3.3,5.5-5.7,5.5c-2.8,0-5.6-3.9-7.2-10.1
	c-1.6-6.1-1.4-10.8,0.4-13.1c2.9-3.7,11-3.8,14-3.8c0.7,0,1.3,0,1.9,0c5.4-0.3,7.6-3.9,8.3-5.4c5.1-11.2,6-23.7,2.8-37.1
	c-2.8-12-8.4-22.2-12.6-28.7c-3-4.7-5.7-8-7.4-9.9c-2.9-3.4-5.9-6.4-10.3-6.4c-4.7,0-7,3.2-8.2,4.9c-1.8,2.5-3.2,4.2-4.3,5.4
	c-0.4-1.4-0.8-3.4-1.1-6.1c-0.9-7.2-2.9-14.9-5.9-22.9l0.5-2.7l0.8-4.1c0.2-1.2,0.8-3.1,1.4-5.2c1.6-5.4,3.5-11.5,3-17
	c0.4-2.4-0.2-4.9-1.7-6.9l-0.5-0.6c-1.3-2.9-4.1-7.9-9.6-8.4c-0.5-0.1-0.9-0.1-1.4-0.2l-0.9,0c-1.9-0.6-4.2-0.9-7.1-0.9
	c-2.7,0-5.5,0.2-8.1,0.5l-0.3,0l-2.8-0.1c-1.8-2.1-4-4.7-6.2-7c-5.3-5.7-8.8-8.6-13.4-8.6c-3.2,0-8.8,2-9.4,9.6
	c-0.1,1.1-0.1,2.5-0.1,4c-0.1,6.1-0.5,10.2-1.2,12.1c-5.9-1.3-15.5-11.8-24.7-22c-14.8-16.3-33.2-36.5-58.2-46.8
	c-0.1,0-0.2-0.1-0.3-0.1c-1-0.4-2-0.6-3.1-0.6c0,0,0,0-0.1,0c-2.9,0-5.5,1.4-7.2,3.7c-1.8,2.5-2.2,5.3-1.2,8.6
	c1.6,5.1,2.3,10.6,1.9,15.8c-0.3,0.2-0.6,0.4-0.8,0.5c-1.8-0.5-3.6-1-5.4-1.6c-0.9-0.3-1.8-0.5-2.6-0.8c-0.3-0.2-0.7-0.5-1-0.7
	c-0.4-0.2-0.7-0.5-1.1-0.7c-0.6-0.6-1.5-1.3-2.5-1.8c-1.3-0.6-2.7-1-4.1-1c0,0,0,0,0,0c-5,0-8.5,4.1-9.5,6.7c-0.1,0.3-0.3,0.7-0.4,1
	c-1.6,0.4-2.8,0.9-3.9,1.4c-1.1,0.2-2.2,0.4-3.2,0.7c-2.6,0.6-5.3,1.6-7.8,2.8c-2.8,1-4.9,3.3-5.6,6.1c-0.2,0.8-0.3,1.7-0.3,2.5
	c-3.9,2.5-6.4,5.1-6.7,9.2c-0.1,0.8,0,1.6,0.2,2.4c-2.5,2-4.5,4.6-4.5,8.3c0,2.9,1.4,5.6,3.5,7.2c-5.6,10-7.9,21.4-6.7,34.2
	c-0.2,0.7-0.3,1.2-0.3,1.3c-0.4,2.4,0.1,4.8,1.4,6.7c1.1,5.6,2.7,11.4,4.9,17.4c-9.3,19.5-14.9,20.4-15,20.4c-0.2,0-1.2-0.4-2.8-2.4
	c-1.8-2.3-3.2-5.2-3.9-6.7c-0.2-0.4-0.4-0.8-0.5-1c-2.5-4.8-6.9-5.2-8.2-5.2c-3.1,0-5.9,1.5-7.6,4.1c-11,17-24.4,54.5-23.4,71
	c0.2,2.8,1.6,5.3,3.9,6.9c1.5,1,3.3,1.6,5.1,1.6c0.9,0,1.9-0.1,2.8-0.4c0.9-0.3,1.4-0.3,1.6-0.3c1.1,0,1.8,3.3,1.8,3.3
	c1.4,5.8-0.9,12.6-3,13.7c-3.8,1.9-5.7,2.1-6.4,2.1c-0.1,0-0.2,0-0.3,0c-1.1-1.3-1.7-6.1-1.9-7.7c-0.2-1.4-0.4-2.7-0.6-3.8
	c-1.4-5.9-6-8-9.4-8c0,0,0,0,0,0c-0.3,0-0.6,0-0.9,0c-6.4,0.6-8.3,6.5-9.5,10.4c-0.7,2.3-1.8,6.3-3,12c-1.7,8.6-3.6,22-3.1,37
	c0.8,21.4,6.3,39,16.4,52.2c13.2,17.4,33.6,26.5,60.5,27.2c0.2,0,0.5,0,0.7,0c1.5,0,3.4-0.1,6-0.3c0.4,0,0.9,0,1.4,0
	c0,0,0.1,0,0.9,0l3.3,19.1c0.1,0.7,0.2,1.4,0.4,2.1l1.1,6.4c0.7,4,4,7.1,8,7.4c1.5,0.5,3.3,0.8,5.3,0.8c1,0,2.7-0.1,4.4-0.4
	c1.5-0.1,3-0.5,4.3-1.3c0.6-0.3,1.2-0.7,1.8-1.2l5.2-4.7c1.9-1.7,2.9-4,3-6.5l0.5-18.8c1.6,0.9,3.4,1.4,5.2,1.4
	c0.7,0,2.7-0.1,4.8-1.3c1.8,1.2,3.7,1.4,5,1.4c1.2,0,2.4-0.2,3.5-0.7c2.8-0.5,5.3-2.4,6.6-5.2c5.2-0.1,10.5-0.2,15.8-0.4
	c0.7,6.3,1.6,12.2,3,18.2c0.1,0.5,0.3,2,0.5,3.3c0.7,4.5,1.2,8.2,1.7,10.4c0.2,1.2,0.6,2.3,1.2,3.3c0.4,0.8,0.9,1.4,1.5,2
	c1.8,1.8,4.3,2.8,7,2.8c1.4,0,2.8-0.3,4.3-0.7l5-0.1c2.5-0.1,4.7-1.1,6.3-2.8l5.7-4.7c0.8-0.7,1.5-1.5,2.1-2.4
	c2.7-3.4,2.3-7.9,1.8-11.6c0.3-4.2,0.7-10,1.1-16.3c0.1-0.8,0.3-1.6,0.4-2.4c4.1-0.1,8-0.2,11.7-0.3c-0.1,5.4,0.1,8.7,0.7,11.1
	c0.3,4.7,4.2,8.4,9,8.4h0.2c1.6,1.4,3.6,2.2,5.9,2.3c0,0,0.1,0,0.1,0c3.6,0,6.7-2.1,8.2-5.2l6.7-4.7c2.2-1.5,3.6-4,3.8-6.6l0.5-6.3
	c11.9-0.4,12.9-0.6,13.7-0.8c0.4-0.1,0.8-0.2,1.2-0.2c12.7-0.1,24.4-0.5,33.2-1.1c15.7-1,18.7-2.4,21-4.1c0.8-0.6,1.8-1.3,2.9-2.1
	c10.6-7.5,32.7-23,37-59.3C363.5,269,349.8,234.5,343.2,227z M329.1,202.2c0.8-1.8,1.5-3.6,2-5.4
	C330.5,198.5,329.9,200.4,329.1,202.2C329,202.2,329,202.2,329.1,202.2C329,202.2,329,202.2,329.1,202.2z M16.5,226.3
	C16.5,226.3,16.6,226.3,16.5,226.3C16.6,226.3,16.6,226.3,16.5,226.3C16.6,226.3,16.5,226.3,16.5,226.3z M77.7,347.3
	c-0.2,0-0.3,0-0.5,0C77.4,347.3,77.6,347.3,77.7,347.3C77.8,347.3,77.7,347.3,77.7,347.3z M86.8,107.5L86.8,107.5l0.7-0.6
	L86.8,107.5z M90.5,63.3C90.5,63.3,90.5,63.3,90.5,63.3C90.5,63.3,90.5,63.3,90.5,63.3C90.5,63.3,90.5,63.3,90.5,63.3z M97.4,53.6
	c-0.1,0-0.2,0-0.3,0c0,0-0.1,0-0.1,0C97.1,53.6,97.3,53.6,97.4,53.6z M96.7,61.6c-0.3,0.1-0.6,0.2-0.9,0.3c-0.3,0.1-0.6,0.2-0.9,0.3
	c-0.5,0.1-1.1,0.2-1.6,0.3c0.5-0.1,1.1-0.2,1.6-0.3c0.3-0.1,0.6-0.2,0.9-0.3C96.1,61.8,96.4,61.7,96.7,61.6c0.6-0.2,1.1-0.4,1.7-0.5
	C97.9,61.2,97.3,61.4,96.7,61.6z M104.1,382.8c0,0-0.1,0-0.1,0C104,382.8,104.1,382.8,104.1,382.8
	C104.1,382.8,104.1,382.8,104.1,382.8z M107.4,382.4C107.4,382.4,107.4,382.4,107.4,382.4L107.4,382.4
	C107.4,382.4,107.4,382.4,107.4,382.4z M108.1,382.4L108.1,382.4l0-0.4L108.1,382.4z M108.6,381.3c-0.1,0.1-0.1,0.2-0.2,0.3
	C108.5,381.6,108.5,381.5,108.6,381.3L108.6,381.3z M109.5,45.2C109.5,45.2,109.5,45.2,109.5,45.2c0.1,0,0.1,0,0.1,0
	C109.5,45.2,109.5,45.2,109.5,45.2z M116.3,38.4c0.1,0,0.1,0,0.2,0c0.1,0,0.2,0,0.3,0C116.7,38.4,116.5,38.3,116.3,38.4z M123.1,31
	C123.1,31,123,31,123.1,31C123,31,123,31,123.1,31C123.1,31,123.1,31,123.1,31c0.3,0.1,0.5,0.4,0.7,0.7
	C123.6,31.4,123.4,31.1,123.1,31z M128.4,351.3c-0.1,0-0.1,0-0.2,0C128.3,351.3,128.4,351.3,128.4,351.3
	C128.4,351.3,128.4,351.3,128.4,351.3z M138.3,351.5c0,0-0.1,0-0.1,0C138.2,351.5,138.3,351.5,138.3,351.5
	C138.3,351.5,138.3,351.5,138.3,351.5z M138.8,351.1c0,0,0-0.1,0.1-0.1h0C138.9,351,138.8,351.1,138.8,351.1z M139.1,351
	c-0.1,0-0.1,0-0.2,0C139,351,139,351,139.1,351C139.1,351,139.1,351,139.1,351z M140.6,349.6c-0.1,0.2-0.2,0.4-0.4,0.5
	C140.4,349.9,140.5,349.7,140.6,349.6C140.6,349.6,140.6,349.6,140.6,349.6z M145.2,35.8C145.2,35.8,145.2,35.8,145.2,35.8
	c0,0,0.1,0,0.1,0C145.3,35.8,145.2,35.8,145.2,35.8z M147.1,9C147.1,9,147.1,9,147.1,9C147.1,9,147.1,9,147.1,9
	C147.1,9,147.1,9,147.1,9z M147.1,36.1C147.2,36.1,147.2,36.1,147.1,36.1C147.2,36.1,147.2,36.1,147.1,36.1
	C147.2,36.1,147.2,36.1,147.1,36.1z M179.2,385.3C179.2,385.3,179.2,385.3,179.2,385.3C179.2,385.3,179.2,385.3,179.2,385.3
	C179.3,385.3,179.2,385.3,179.2,385.3z M182.1,384.6C182.1,384.6,182.1,384.6,182.1,384.6C182.1,384.6,182.1,384.6,182.1,384.6
	l6.2-0.2l-0.1-3l0,0l0.1,3L182.1,384.6z M195.5,373.3c0-0.3-0.1-0.7-0.1-1c0.1-0.9,0.1-1.8,0.2-2.8c-0.1,1-0.1,1.9-0.2,2.8
	C195.4,372.7,195.5,373,195.5,373.3z M244.3,343.2l-1.2,14.3l-7.4,5.2l7.4-5.2L244.3,343.2c2.2-0.1,4.2-0.1,6.1-0.2
	C248.5,343,246.5,343.1,244.3,343.2z M259.6,68.7c-0.9-1.1-1.9-2.3-3-3.6C257.7,66.4,258.7,67.6,259.6,68.7L259.6,68.7z M259.7,68.5
	C259.7,68.5,259.7,68.5,259.7,68.5C259.8,68.5,259.8,68.5,259.7,68.5C259.8,68.4,259.7,68.5,259.7,68.5z M277.3,96.5
	c0,0.3-0.1,0.5-0.1,0.8c0.1,0.2,0.1,0.3,0.2,0.5c-0.1-0.2-0.1-0.3-0.2-0.5C277.2,97,277.2,96.7,277.3,96.5z M274.9,68.1
	c0.1,0,0.1,0,0.2,0c-0.1,0-0.2,0-0.3,0C274.8,68.1,274.8,68.1,274.9,68.1z M266.5,341.9c-0.6,0.1-1.3,0.3-1.9,0.4
	C265.3,342.1,265.9,342,266.5,341.9c4,0,8-0.1,11.7-0.2C274.5,341.8,270.6,341.8,266.5,341.9z M278.3,90.8c0.3-1.8,0.7-3.5,1-5.1
	C279,87.3,278.7,89,278.3,90.8z M280.9,105.9c0.6-3.1,1.3-6.3,1.9-9.4c0.1-0.3,0.1-0.7,0.2-1.1c-0.1,0.4-0.2,0.7-0.2,1.1
	C282.2,99.6,281.5,102.7,280.9,105.9c0.8,1.9,1.5,3.9,2.1,5.8C282.4,109.7,281.7,107.8,280.9,105.9z M283.3,69.1
	C283.4,69.1,283.4,69.1,283.3,69.1C283.4,69.1,283.4,69.1,283.3,69.1C283.4,69.1,283.4,69.1,283.3,69.1z M287.1,78.3
	c0-0.9,0-1.8-0.2-2.6l0.2-1.2l-0.2,1.2C287.1,76.6,287.1,77.4,287.1,78.3z M303.9,230.6C303.9,230.6,303.9,230.6,303.9,230.6
	C303.9,230.6,303.9,230.6,303.9,230.6c-0.1-0.5-0.3-1-0.4-1.5C303.7,229.5,303.8,230,303.9,230.6z M301.8,340.7
	c1.1-0.1,2.1-0.2,3.1-0.2C303.9,340.5,302.9,340.6,301.8,340.7z M335.2,232.2C335.2,232.2,335.2,232.1,335.2,232.2
	C335.2,232.1,335.2,232.2,335.2,232.2C335.2,232.2,335.2,232.2,335.2,232.2z"/>
<g>
	<g>
		<path class="st1" d="M92.8,132.9c-24.4,52.2-38.4,11.1-39,11.1c-10.4,16.1-22.8,51.8-21.9,65.5c18.9-6.2,19.9,27,7.3,33.3
			c-24.6,12.2-20-16.8-22.7-16.5c-2.7,0.3-35.5,118.5,60.7,121c8.5,0.2,48-5.8,56.2-3.7c14.9,3.7,3.5-1.3,18.8-3.9
			c5.1-0.9,10.6,5.3,15-12.8c4.4-18.2-4.7,5.5,5.1,8.6c27.8,8.6,137.8,7.6,143.9,3c9-6.8,32.1-19.3,36.4-55.2
			c1.8-15.3-17.5-59.4-18.2-49.7c-1,14.1-23.7,23.6-30.6-3c-8.5-32.8,24.7-27.4,25.1-28.4c14.7-32.4-17.1-69.4-19.2-69.4
			c-0.6,0-18.3,30.2-22.6-3.7c-2.5-19.6-13.5-40.6-24.7-56.6c-1.9-2.8-15.6-19.7-18.4-19.7c-1.7,0,2.8,26.5-10.5,25.7
			c-20.6-1.3-43.8-52-86.6-69.6c-0.3-0.1,11.9,29.2-14,52.9c-3.2,2.9-32.5,54.9-32.5,62.1"/>
		<path class="st2" d="M264.6,342.3c61.1-12,34-59.5,33.3-59.5c-0.5,0-26.5,29.2-33,0.1c-2-8.9,16.6-39.5,20.2-48.5
			c7.5-18.7,8.3-24.6-0.1-42.3c-0.8-1.8-16.2-25.4-16.7-25.4c-0.3,0,0,27.1-15.9,29.3c-2.7,0.4-2.5-9.5-2.5-11.7
			c0-11.6,0-24.4-1.3-36c-1.1-9.9-1.9-20.2-5.4-29.7c-6.6-17.7-30-35.4-46-44.3c-4.3-2.4-12.5-10.9-17.6-10.9
			c-1.3,0-0.6,0.6-0.8,1.3c-1.9,6.7-6,12.9-9.6,18.8c-13.9,22.6-30.4,44-45.2,66.1c-14.8,22.2-29.7,45.6-41,69.8
			c-4.2,9,7.4,51.3-2,54.3c-27.8,9.2-33.1-17.5-33.3-17.4c-3,1-17.8,90.8,37.3,90.8C85.5,347,259.3,343.3,264.6,342.3z"/>
		<path class="st3" d="M259.8,68.5c2,1.6,18.7-2.4,20.9,1.1c2.5,3.9-1.7,13-2.1,17.3c-1.3,14.5-13.2,67.8-15.3,80.3
			c-0.5,2.7-1.8,5.2-1.9,8c0,0.3,0.1,3.1-0.3,3.1c-1.2,0.1-4.3-5.8-4.8-6.9c-0.5-1.3-5.5-6-5.4-6.6c0.8-3.6,2-7,2.2-10.8
			c1.2-21.8,0.3-43.7,3.9-65.4C257.4,86.3,259.3,68.1,259.8,68.5z"/>
		<path class="st3" d="M186,278.4c1.4,0.5-0.5-1.6-0.6,0.1c-0.2,2.4,0.7,23.1,0.2,23.5c-0.1,0.1-23.6,0-26.4-0.3
			c-10.1-1-20.5-0.8-30.6-0.7c-9,0.1-38.9,2.2-44.7,0.1c-0.8-0.3-3.4-28.4-2.5-29.8c0.1-0.1,2.5,0.2,2.8,0.3
			c8.1,0.8,15.2-0.3,23.3-1c10.7-0.9,20.8,1.7,31.4,1.7C155.3,272.4,170.6,272.6,186,278.4z"/>
		<path class="st3" d="M86.6,302.2c-1.5,11.5,3.8,22.5,6,33.6c1.5,7.4,2.1,14.9,3.8,22.2c1.6,7,0.6,17.7,4.3,23.9
			c0.8,1.3,6.5,1,7.5,0c1.7-1.7,0.5-11.9,0.8-14.2c1.9-15.1,2.5-47.2-1.3-62.1c-1.3-5.1,4-0.9,0.7-5.2
			C107.6,299.3,86.8,300.7,86.6,302.2z"/>
		<path class="st3" d="M166.3,302.4c-0.9,0.3,1.4,12.1,1.7,13.4c0.4,1.9,0.8,3.8,1.2,5.7c3.1,16.2,3.2,33.1,6.9,49.1
			c0.3,1.3,1.9,13.9,2.5,14.5c0.8,0.8,5.2-1.2,6.2-1.2c0.7,0,2.2,0.3,2.8-0.3c1.6-1.6,0.3-5.8,0.1-7.8c-0.4-7.1-0.4-14.4-1-21.4
			c-1.2-12.9,0.1-25.9,0.1-38.8c0-2,1.3-11.8,0.4-13c-0.5-0.8-3.1-0.2-4-0.3C178.4,301.5,170.9,300.7,166.3,302.4z"/>
		<path class="st3" d="M224.7,294.1c-0.1-2.4,7.7-2.6,9.5-3.1c1.2-0.3,3.5-1.8,3.5-0.6c0,5-0.8,10.7-1.6,15.9
			c-0.5,2.9-0.8,7-0.4,9.9c0.4,3.3-0.3,6.6-0.6,9.8c-0.5,6.6-0.1,13.1-0.9,19.6c-0.5,4.3-0.1,8.8-0.1,13.2c0,0.6,0.6,4.1-0.1,4.2
			c-1,0.2-5.5,0.5-6.3,0c-1.6-1.1-0.7-15.3-0.7-17.6c0-2.6-0.8-5.1-1.2-7.6c-1.3-9,0.1-18.4-1.2-27.4
			C223.8,305.4,224.9,299.2,224.7,294.1z"/>
		<path class="st3" d="M216.8,84.1c2.5-2.2,15.7-0.1,18.9,0c4,0.1,7.9,0,11.9-0.3c2-0.1,8.4-0.7,9.9,0.4c1.6,1.1-1.2,6.6-1.5,7.7
			c-0.2,0.9,0.2,5.5-0.4,5.7c-2.4,0.7-6.9-0.1-9.4-0.2c-4.7-0.3-9.8-0.1-14.5,0.3c-1.5,0.1-6.7,0.7-8-0.3c-2.2-1.6-3.2-5.7-4.2-8.1
			C219.1,88.2,216.4,84.5,216.8,84.1z"/>
		<path class="st3" d="M229.7,119c3.5-2.7,14.5,0,19.5-0.1c1.1,0,4.3-1,5.3,0c1.7,1.9-0.6,16.9-1.2,19.1c-0.2,0.9,0,4.6-0.7,5.1
			c-1.5,0.9-4.9-0.1-6.6,0.1c-1.1,0.1-11.6-0.7-12.4-1.5c-1.9-2.1-1.5-8.1-2.2-10.8C230.7,127.8,227,121.1,229.7,119z"/>
		<path class="st4" d="M282.9,69.7c0.7-2.5,3.5,3.7,4,5.7c1.4,5.4-3,15.6-4.1,21.1c-3.2,16-6.5,31.9-8.8,48
			c-1.3,8.9-2.5,18.3-4.7,26.9c-0.3,1.1-2.1,15.1-4.4,12c-4.4-5.8,1.2-25,2-31.6c2.4-19,7.8-37.9,10.8-56.8
			C280,81.8,280.6,78,282.9,69.7z"/>
		<path class="st4" d="M236.9,289.1c3.8-2,7.9-1.2,11.5-3.8c0.2-0.1,0.3-0.4,0.5-0.3c0.8,0.2-0.1,3.9-0.2,4.4
			c-1.1,4.4-0.8,9-1.6,13.5c-2.3,12.7-2.5,26.3-2.9,39.2c0,1.1-1.7,15.6-1.8,15.8c-0.7,0.6-2,1.3-2.9,1.9c-0.9,0.6-2.3,0.4-3.3,1
			c-0.2,0.1-1.1,0.9-1.3,0.8c-0.4-0.2,0-1.2,0-1.5c0.2-3.6,0-7.2,0-10.8c0.1-13.6-1.3-27.7,0.8-41.1
			C236.3,304.3,234.1,290.6,236.9,289.1z"/>
		<path class="st4" d="M187.5,302.9c0.4-1,4.8-1.3,6.3-1.5c1.4-0.2,6.1-2.2,7.4-1.6c0,0-0.9,4.9-0.9,5.1c-1,5.3-1.8,10.4-2.2,15.8
			c-0.7,8.6,0.7,17.5-0.3,26c-0.7,6.7-2.3,13.3-3,19.9c-0.2,2.2,2,10.6,0.8,11.4c-0.7,0.5-5,4.9-5.9,5.1c-1.8,0.5-1.7-6-1.7-7.1
			c0-7.6-1.6-15.8-0.4-23.2c0.6-3.4-0.9-7.1-0.9-10.6c0-8.9,0.3-18.4,1.1-27.3C187.8,312,186.5,305.5,187.5,302.9z"/>
		<path class="st4" d="M184.4,279.6c-0.1,0,1.8,21.5,1.3,22.3c-0.4,0.7,6.5-1.3,7.5-1.4c8.7-1,16.7-5.3,25.3-6.6
			c0.3,0,0.5,0,0.8-0.1c4.7-1.2,9.1-2.6,13.8-4c0.2-0.1,1.8-0.4,1.9-0.5c0.1-0.3-5.1-1.1-5.6-1.1c-3.4-0.6-6.8-1.9-10-3.1
			c-4.7-1.8-9.1-3.9-13.7-5.9c-2.7-1.2-4.8-5-8.1-4.9c-3.5,0.1-6.6,3.8-10,4.1C186.4,278.3,184.9,279.7,184.4,279.6z"/>
		<path class="st5" d="M239.2,50c-0.3-0.3-0.5-0.6-0.8-0.8"/>
		<path class="st6" d="M259.2,68.1l-8.2,104.7L259.2,68.1z"/>
		<polyline class="st6" points="199,83.8 227.8,83.7 257.4,83.3 		"/>
		<line class="st6" x1="207.7" y1="97.4" x2="256.4" y2="97.6"/>
		<line class="st6" x1="216.4" y1="118.6" x2="255" y2="118.7"/>
		<line class="st6" x1="219.9" y1="142.5" x2="253.2" y2="142.5"/>
		<polyline class="st6" points="283.1,69.1 287.2,74.6 284.3,88.8 281.4,102.6 265.7,183.5 263.7,193.9 		"/>
		<polyline class="st4" points="108.6,382.1 113.8,377.5 114.9,333.7 110.4,327.2 		"/>
		<polyline class="st6" points="108.6,382.1 113.8,377.5 114.9,333.7 110.4,327.2 		"/>
		<path class="st7" d="M218.9,215.6c7.1-2.7,13.4-7.8,20.7-10.4c6.1-2.2,11.9-1.1,17.9-2.5"/>
		<path class="st7" d="M218.4,214.4c7.4-6.1,27.7-14.5,38-13.5"/>
		<path class="st8" d="M221.1,214c5.7-2.2,9.2-9,14.9-11.6c7.8-3.4,16.2-5.6,24-8.6"/>
		<path class="st8" d="M218.8,216.2c0.3-2.9,21-13.6,24.9-14.7c2.8-0.8,10.8-2.3,10.5-2.3"/>
		<path class="st8" d="M214.1,216.9c4.8-4,11-5.8,16.6-8.2c4.1-1.7,7.7-3,12.1-3.6c16.3-2.1,22.4,7.1,13.2,22.4
			c-7.4,12.2-42.3,30.5-51.9,11.9c-4.2-8.1,4.6-16.3,10.9-19.6c12.8-6.5,28.1-6.9,35.2,7.4c7.6,15.2-1.5,29.1-15.4,35.9
			c-5.8,2.9-13.3,1.7-19.5,1.1"/>
		<path class="st9" d="M103.8,60c-2.4,0-8.5,12.1-9.9,14.6c-10.3,18.3-6.5,39.6,1.7,57.8c2.1,4.7,1.1,6.1,3.3,10.5
			c1,2,4.5,6.7,4.5,8.8c0,0.5,0,1.4,0,1.4s-0.6-3.5-1.4-5c-0.2-0.5-1.2-1.4-0.7-1.4c0.3,0,0.6,0.8,0.7,1c2.3,5.8-0.3,13.1,1.2,19.1
			c1,4.2,8.9,9.2,13.2,10.3c16.4,4.1,32.9-0.2,49.3-0.2c4.1,0,15.9,1.3,19.3-2.1c2.9-2.9,3.8-6.7,6.1-10c3.2-4.5,11.4-1.7,16.5-3.7
			c5.2-2.1,10.9-9,16-7.7c1.3,0.3,5.3,2,6.6,0.7c2.1-2.2,3.1-8.5,2.6-11.2c-1.4-7.3-1-18-2.4-25.1c-1-4.8-2.7-9.4-4.5-14.1
			c-7-18.3-16.7-33.3-32.3-44.7c-3.9-2.9-10.4-7.9-14.8-10.2c-4.3-2.2-9.1-2.1-13.4-4.3c-5.7-2.9-11.8-6.6-17.9-8.1
			c-1.5-0.4,0.6,2.3,0.5,2.6c-0.2,0.4-4,0.3-4.5,0.2c-5.1-1-10.2-0.9-15.1-3.1c-0.8-0.4-3.8-3.4-4.7-3.1c-2.9,1,1.4,9.1,1.4,9.1
			s-0.4-0.7-0.7-1c-1.4-1.1-4.6-2-6.4-2.4c-3.8-0.8-5.5,1.7-8.7,2.4c-0.4,0.1-4.2,1.1-4.2,1.2c0,0.8,6.1,1.8,6.1,2.6
			c0,0.7-1.3,0.4-1.7,0.5c-1.8,0.3-12.1,4.6-11.3,6.9c0.3,1,5.8,1,6.8,1.7c0.3,0.2,0.9,0.2,0.9,0.2s-4.3,0.7-6.4,1.2
			c-2.6,0.7-7.3,5.7-2.7,5.7"/>
		<path class="st9" d="M78.1,191c0.2-0.6,0.4-2.2,0.9-1.8c11.2,9.7,23.5,10.1,23.5,10.2c1,3.3,0.9,5.8,2.8,7.7
			c0.6,0.6,2.5,0.7,2.8,1.8c0.3,1-3.7,6.5-4.2,8.4c-1.3,5-0.9,10.8,0.4,15.8c3.1,12.6,14.8,11.6,22.4,19.3c2.2,2.2,2.8,6.8,3.5,9.5
			c0.1,0.5-0.3,4.6,0.4,4.6c1.9,0,3.6-7.4,4.9-8.8c7.3-7.3,11-17.1,22.4-20c10.8-2.7,22.6,2.8,33,4.9c6.6,1.3,14.2,6.1,21.7,4.2
			c9.6-2.4,9.8-8.3,9.8-17.5c0-2.5-1-8.9-0.8-8.9c28.7,0.7,47-19.8,46.1-18.8c-1.7,1.7,3.4,11.4,3.9,13.7c1.7,8.5,1.4,16.2-0.7,24.5
			c-0.9,3.7,0.9,8.2,0,11.9c-4.2,16.9-19.5,41.4-40.6,36.2c-7.3-1.8-12.8-5.6-20.4-7.1c-1.7-0.3-6.5-2.8-7.9-3.9
			c-5.1-3.8-17.1-1.2-21.6,3.2c-7.7,7.7-13.4,15.6-18.9,24.9c-1.7,2.8-4.1,6.1-4.9,9.5c-0.2,0.8,0.5,2.6-0.4,3.2
			c-0.9,0.6-22.1-0.5-22.4-0.7c-3.3-2.2,0.9-28-3.9-28c-1,0,0,6.8,0,7.4c0,3,1.1,21,0,22.1c-0.8,0.8-5.1-0.1-6.3,0.4
			c-3,1.2-12,4.5-14.7,1.8c-2.4-2.4-3.7-7.2-4.6-10.5c-1.4-5.5-6.7-9-8.1-14.4c-1.7-6.7-4.3-13-6-19.6c-1.1-4.2-2.4-12.4-0.4-16.5
			c0.1-0.2,0.7-1.1,0.4-1.4c-2-2-4.6,6.7-15.4,3.5c-13.8-4-10.8-20.2-9.9-24.7c2.5-12.6,6-28.1,11.7-39.4
			C77.3,195.7,78,191.4,78.1,191z"/>
		<path class="st10" d="M118.4,261.8c0.5-0.9,10.6-6.1,11-3.5c0.7,4.4-0.4,9.2-0.4,13.7c0,0.6,0.2,6.4,0.4,6.3
			c0.9-0.5,4.3-18.7,7-19.6c2.6-0.9,11.4,3.6,14,4.9c0.2,0.1,1.3,0.5,1.1,1.1c-2.5,5-9.2,10.4-11.9,15.8c-0.4,0.8-5.3,8.9-5.6,8.8
			c-0.3-0.2-7.3-14.5-8.8-16.5C123.8,270.8,117.5,263.7,118.4,261.8z"/>
		<path class="st10" d="M133.7,318.8c0.1-0.3,20.5,0.3,21,0.9c0.1,0.1-0.9,2.2-1.1,2.5c-2.5,4.9-4.7,10.2-8.1,14.7
			c-3,4-4.2,8.7-6.3,13c-0.2,0.4-0.3,1.2-1.1,0.7c-4.7-3.2-2.9-12.6-3.9-17.5C133.5,328.8,132.5,323.1,133.7,318.8z"/>
		<path class="st10" d="M110.4,324.1c0.4-0.7,17.8-6,19.1-3.3c1.7,3.4,1.4,25.6-0.7,28.7c-0.9,1.3-5-3.2-5.6-3.9
			c-3.2-3.2-10-14.8-12.3-19.3C110.7,325.9,110.2,324.4,110.4,324.1z"/>
		<path class="st11" d="M75.9,186.1c-2.2-4.4,0.4-10.2,1-12.4c2.4-9.4,11.2-16,20-18.2c1.8-0.5,5.2,0.1,6.3,1.8
			c0.8,1.2-3,0.9,1.2,3.5c4.2,2.6,5.2,2.5,10.5,3.8c5.3,1.3,8,1.7,12.6,2.9c10.1,2.6,28.7,3.4,38.1,1.5c15.5-3.1,22.8-3.9,38-7.7
			c6.7-1.7,13.4-11.8,21-9.9c1.5,0.4,9.5,0.5,12.8,2.1c3.3,1.6,6.7,5,12.1,9c3.6,2.7,5.9,8.6,8.8,11.6c2.5,2.5,2,4.3,4,7
			c2.4,3.2,8.4,14.4,6.1,18.9c-1.2,2.4-17.6,22.7-48.4,19.6c-0.6-0.1,0.2-0.7-0.6-0.3c-0.7,0.4,1,2,1.1,2.1c1.4,1.9,2.3,5,1.8,7.4
			c-1.5,5.9-1.9,13-7.8,15.4c-12.1,4.8-35.5-7.9-49.7-5.9c-9.1,1.3-15.9,4.5-23.1,10.3c-3.2,2.5-4.8,9.7-7.6,12.5
			c-0.2,0.2-0.5,0.4-0.7,0.4c-0.7-0.2-1.3-3-1.4-3.5c-0.7-2.7-4.3-5.5-6.2-7.4c-4.8-4.8-14.6-6.7-18.7-12.2
			c-3.4-4.5-1.6-23.8,0.8-29.9c-3.1-1.7-3.7-5-5-8.5C93,199.5,77.3,189,75.9,186.1z"/>
		<path class="st6" d="M220.4,212.1c21.5-0.4,30.3-4.6,38.8-13.6"/>
		<path class="st6" d="M76.7,178.7c3.8,5.2,12.1,9.8,18.6,10.9"/>
		<path class="st7" d="M107.9,210c16.8-3.4,43.4-4.8,60.5-1.9c5.2,0.9,25.3,11.1,27.5,6.5c3.5-7.1-12.4-7.2-15.5-8.2
			c-16.2-5.4-37.4-5.8-54.2-3C123.4,203.8,105.7,210.4,107.9,210z"/>
		<path class="st7" d="M220.2,222c3.6,17.8-23.1,21-28.6,19.6c-3.9-1-7-2.2-11.2-2.2c-0.6,0-1.7-0.6-1.7,0c0,0.3,0.5,0.4,0.9,0.4
			c5,1.2,10.1,1.6,15.1,2.6c5.9,1.2,9.5,5.3,17.5,3.3C217.3,244.5,229,231,220.2,222z"/>
		<path class="st7" d="M160.7,239.7c-23.6,10.6-48.3,7-56.1-6.2c3.6,7.3,15.3,15.9,21.1,20.2c3.4,2.6,4.8,7.2,5.6,11.2
			c0.3,1.4-0.6,5.6,0,4.3c4.7-9.3,6.4-19,16.9-25.3C150.3,242.6,162.7,238.8,160.7,239.7z"/>
		<path class="st7" d="M181.9,267.2c1-0.7-4.1,1.2-5.4,1.9c-3.2,2-5.9,5.2-8.2,8.2c-4.2,5.7-17,31.7-26.7,29.3
			c-5.4-1.3-8.6-4.5-9.9-9.9c-0.2-0.9-0.6-7.7-2.2-7.7c-0.6,0-0.7,7.4-0.9,8.2c-0.8,4.2-3.2,5.4-6,8.2c-4.4,4.4-11.5,2.1-16.4,0.9
			c-0.7-0.2-5.9-4-6-3.9c-0.5,0.5,5.4,10.4,6,11.6c6.2,12.4,10.8,25,20.7,34.9c4.5,4.5,3.8-7.1,3.4-9.5c-0.7-4.2-3.8-32.4,0.9-33.6
			c1.5-0.4,0.7,7.3,0.9,8.8c1.3,8.9,1.2,19.1,3.4,27.8c0.3,1,1.9,11,4.3,8.2c2.7-3.2,8.1-18.7,11.9-26.2
			c6.6-12.9,14.5-21.9,20.8-34.5c3.3-6.6,10.5-12,17.6-13.8c2.5-0.6,4.7-0.9,7.3-0.9c0.3,0,0.9,0.3,0.9,0
			C198.5,273.4,179.8,268.8,181.9,267.2z"/>
		<path class="st7" d="M218.4,243.3c48,24.1,49.6-81.7,2.5-91.2c-0.7-0.1,1.4-0.4,2.2-0.4c4.7,0,8.5,0.4,12.9,2.6
			c11.7,5.9,19.3,17.5,27.1,28c2.8,3.7,5.9,12.7,4.7,17.2c-0.4,1.6-2.6,2.2-2.2,3.9c1.5,6.2,5.3,11.7,6,18.5c0.4,4.3-0.8,9.1,0,13.3
			c0.6,3,1.9,6.2,1.3,9.5c-1.7,8.7-7.1,15.6-10.3,23.7c-3.9,9.7-10.4,17.7-20.7,20.2c-4.4,1.1-10-1.9-14.2-2.6
			c-21.9-3.6-40.7-17.5-62-22.8c-12.3-3.1-19.3,6.8-26.7,14.2c-0.8,0.8-6.3,12.2-6.9,11.6c-4.2-4.2-2.6-19.3-0.8-23.7
			c1.7-4.2,8.8-14.5,11.3-15.1c-6,16,52.5,5,45.3-8.5C195.5,240.7,212.4,249.7,218.4,243.3z"/>
		<path class="st12" d="M68.9,221.4c2.4-7.4-2.8,9.9-3,11.2c-0.5,3.7-0.3,7.5-0.9,11.2c-5.5,32.7,26.8,14.4,39,10.4
			c6.9-2.3,17,13.5,20.1,19.6c0.4,0.8,4.5,7.2,4.8,7.2c1,0,7.4-17,4.2-13.9c-3.2,3.1-2.6-13.9-9-17.7c-6.3-3.8-18.5-11.6-18.9-11.2
			C77.1,263.7,63,240,68.9,221.4z"/>
		<path class="st13" d="M92.6,97c2-8.1,6.9-17.3,14.1-18.7c8.5-1.6,16.4-5.7,24.6-6.3c6-0.5,5.4-5.4,5.4-5.4s4.7,3.3,9.1,5.9
			c5.5,3.3,10.1,3.3,15.7,1.6c18.5-5.7,29.5-2.5,39.4,15.6c1.8,3.4,12.6,34.6,0.1,55c-2.6,4.2-6.2,8-11,11
			c-20.1,12.3-63.6,16.2-83.5-9.3C97,134.6,88.9,112.2,92.6,97z"/>
		<path class="st5" d="M133.2,110.4c-6.7-3.4-15.5,16.2-15,21.2c1.5,18.1,29.3,22.7,42.6,11.7c14.2-11.7-5.3-38.8-16.9-34"/>
		<path class="st5" d="M90.6,99.9c-3.6,6.7,6.4,33.8,9.2,35.9c2.1,1.6,35.1-22.1,20.9-59.1c-0.6-1.6-19.1,7.4-21.5,7.9
			C95.9,85.2,92.1,97.1,90.6,99.9z"/>
		<path class="st5" d="M164.2,76.3c-22.5,52.4,36.4,65.1,41.3,55.9c4.3-8.1,2.9-27.9-5-41.9c-0.8-1.4-10.6-13.3-12-13.1
			C177,79.2,167.7,76.4,164.2,76.3z"/>
		<line x1="75.7" y1="217.2" x2="75.7" y2="222.8"/>
		<line class="st14" x1="75.7" y1="217.2" x2="75.7" y2="222.8"/>
		<line x1="81.2" y1="213.8" x2="81.2" y2="219.5"/>
		<line class="st14" x1="81.2" y1="213.8" x2="81.2" y2="219.5"/>
		<line x1="257.9" y1="254.2" x2="257.9" y2="259.9"/>
		<line class="st14" x1="257.9" y1="254.2" x2="257.9" y2="259.9"/>
		<line x1="250.6" y1="250.4" x2="250.6" y2="256.1"/>
		<line class="st14" x1="250.6" y1="250.4" x2="250.6" y2="256.1"/>
		<line x1="216.8" y1="139.9" x2="216.8" y2="145.5"/>
		<line class="st14" x1="216.8" y1="139.9" x2="216.8" y2="145.5"/>
		<line x1="222.7" y1="136.4" x2="222.6" y2="142"/>
		<line class="st14" x1="222.7" y1="136.4" x2="222.6" y2="142"/>
		<line x1="158.2" y1="287" x2="158.1" y2="292.6"/>
		<line class="st14" x1="158.2" y1="287" x2="158.1" y2="292.6"/>
		<line x1="151.7" y1="290.8" x2="151.7" y2="296.4"/>
		<line class="st14" x1="151.7" y1="290.8" x2="151.7" y2="296.4"/>
		<line x1="97.3" y1="275.9" x2="97.3" y2="281.5"/>
		<line class="st14" x1="97.3" y1="275.9" x2="97.3" y2="281.5"/>
		<path class="st7" d="M91.9,62.4c4,0,7.2-1.8,11.1-2.7c1.1-0.3,3.3-1.5,3.3-0.3c0,0.2-0.5,0.2-0.7,0.3c-3.3,2-6,4.9-7.9,8.4
			c-0.7,1.2-2.4,4.5-2,3.7c9.2-16.8,53.1-27.2,84.9-7.8c1.5,0.9,2.9,1.8,4.3,2.9c18.6,13.4,31.9,38.1,29.5,79.4
			c-0.1,1-1.8,8.6-0.9,8.9c2,0.7,9.8-5.1,12.2-4.1c1.1,0.4,5,2.8,5.8,2.2c1.4-1,0.5-6.3,0.7-8c5.1-41.7-37.6-88.7-41.4-90.8
			c-14.2-8-43.3-16.9-44-17.1c-0.1,0-2.7,1.6-4,1.3c-4.8-0.8-10.1-2.6-14.9-4c-0.7-0.2-5.1-3.7-5.3-3.4c-0.5,1.1-0.9,7.2-0.3,8
			c0.4,0.6,2.7-0.3,2-0.3c-6.1,0-13.9,2-20.5,3.4c-0.2,0-0.7,0.1-0.7,0.3c0,1.9,8.6,0.7,8.6,2c0,1-11.9,4.4-13.6,5.7
			c-0.5,0.4-2.4,1.9-2,2.3c1.6,1.6,5.5-0.4,7.6,0.7"/>
		<path class="st6" d="M105.3,58.8c-4.5,3-7.2,8-10.2,12.3c-14.8,21.2-7,48.1,3.5,69.4c0.9,1.9,2.2,4,2.5,6.1c0.1,1.1-0.5,2.8,0,3.8
			c0.2,0.4,1.1-1,1.2-0.6c0.2,2,0,4.2-0.2,6.1c-0.1,0.7-0.9,2.7-0.4,2.2c0.2-0.2,0.7-1.8,1.4-1.6c0.4,0.1,0.6,3.4,0.4,4.5"/>
		<path class="st6" d="M103.9,59.4c-2.2,1.1-3.6,1.1-5.9,1.8c-1.1,0.3-2,0.7-3.1,1c-1.1,0.2-2.1,0.3-3.1,0.6
			c-0.5,0.1-1.4,0.9-1.4,0.4c0-1.5,11.8-8.2,14.1-8.9c0.3-0.1,0.9-0.1,1-0.4c0.2-0.5-0.9-0.5-1.4-0.6c-2.2-0.6-7.6,1.2-9.4-0.2
			c-0.5-0.4,3.5-2.8,3.7-3c2.5-1.4,4.9-3.2,7.6-4c1.6-0.5,4.9,0.7,4.9-1c0-2-8.9-1.3-9.6-2c-0.1-0.1,0.3-0.1,0.4-0.2
			c2-1,4.3-1.9,6.5-2.4c4.1-1,11.3-1.9,15.3-0.6"/>
		<path class="st15" d="M161.7,74.2c39.8-2.9,45.5,29.2,45.5,29.2"/>
		<path class="st16" d="M123.8,76.1c-10.3,0.4-17.8,3.9-23.3,8.4c-11.3,9.3-13.8,23.1-13.8,23.1"/>
		<path class="st17" d="M128.5,111.6c-0.1-2.6,4.8-4.9,11.1-5.2c6.2-0.3,11.4,1.5,11.5,4.1c0.1,2.6-4.8,4.9-11.1,5.2
			C133.8,116,128.6,114.2,128.5,111.6z"/>
		<polyline class="st6" points="124,168.5 124,169 124,169.5 124,169.9 124,170.4 124,170.9 		"/>
		<polyline class="st6" points="88.8,188.7 88.7,189.1 88.5,189.6 88.3,190 88.1,190.4 87.9,190.9 		"/>
		<polyline class="st6" points="230.7,212.9 230.8,213.4 230.9,213.9 231.1,214.3 231.2,214.8 231.3,215.2 		"/>
		<polyline class="st6" points="236.8,211.4 237,211.8 237.1,212.3 237.2,212.7 237.3,213.2 237.5,213.7 		"/>
		<polyline class="st6" points="184.9,166.4 184.9,166.9 184.9,167.4 184.9,167.8 184.9,168.3 184.9,168.8 		"/>
		<polyline class="st6" points="175.8,168.1 175.8,168.6 175.8,169.1 175.8,169.5 175.8,170 175.8,170.5 		"/>
		<polyline class="st6" points="131.9,169.5 131.9,169.9 131.9,170.4 131.9,170.9 131.9,171.4 131.9,171.8 		"/>
		<polyline class="st6" points="136.2,169.8 136.2,170.3 136.2,170.8 136.2,171.3 136.2,171.7 136.2,172.2 		"/>
		<path class="st18" d="M173.4,98.1c-0.3,0-0.6-0.1-0.9-0.1"/>
		<path class="st0" d="M108.8,94.5L108.8,94.5c6.2,0,11.2,5,11.2,11.2v0.7c0,6.2-5,11.2-11.2,11.2c-6.2,0-11.2-5-11.2-11.2v-0.7
			C97.6,99.5,102.6,94.5,108.8,94.5z"/>
		<path class="st19" d="M108.8,94.5L108.8,94.5c6.2,0,11.2,5,11.2,11.2v0.7c0,6.2-5,11.2-11.2,11.2c-6.2,0-11.2-5-11.2-11.2v-0.7
			C97.6,99.5,102.6,94.5,108.8,94.5z"/>
		<path class="st0" d="M182.3,93.2L182.3,93.2c6.2,0,11.2,5,11.2,11.2v0.7c0,6.2-5,11.2-11.2,11.2c-6.2,0-11.2-5-11.2-11.2v-0.7
			C171,98.2,176.1,93.2,182.3,93.2z"/>
		<path class="st19" d="M182.3,93.2L182.3,93.2c6.2,0,11.2,5,11.2,11.2v0.7c0,6.2-5,11.2-11.2,11.2c-6.2,0-11.2-5-11.2-11.2v-0.7
			C171,98.2,176.1,93.2,182.3,93.2z"/>
		<polygon class="st10" points="48.7,127.1 48.7,127.1 48.7,128.1 		"/>
		<path class="st19" d="M135.5,120c0.5,4.8,8.6,3.5,8.6-0.3"/>
		<path class="st6" d="M101.5,155.8c-6.9,0-21.1,3.8-25.8,26c-1.4,6.8,2.6,6.8,2.6,6.8"/>
		<path class="st6" d="M103.4,159.4c51.5,24.7,108.4-3.3,108.4-3.3"/>
		<path class="st6" d="M131,295.1c-3.1-6.2-2.1-23,3.7-35c18.6-39,66.7-12.8,75.7-13.8c16.2-1.8,11.5-25.1,11.5-25.1"/>
		<path class="st6" d="M211.4,187c2.7,8.1,6.9,16.4,8.1,24.8c0.6,4.4-3.1,7.9,2.3,9.7"/>
		<path class="st6" d="M104.2,160.7c1.1,4.6-2.2,6.8,2.6,9.1c17,8.2,51.2,12.3,77.8,4.1"/>
		<path class="st6" d="M107.6,208.8c-16,52.9,30.4,24.2,22.4,63.5"/>
		<path class="st6" d="M90.5,258.9c-6,18,26.6,85.7,37.2,92.2c5.2,3.2,1.5-25.1,1.5-64.4"/>
		<polyline class="st6" points="235.8,362.7 243.1,357.5 249.1,284.6 		"/>
		<path class="st6" d="M189.1,383.7l5.8-4.7c0,0,5.7-81,5.1-79.6"/>
		<path class="st6" d="M105.5,177c0,8.1-7.9,26.7,2.3,31.8"/>
		<path class="st6" d="M137.1,257.5c7.6,1.7,9.9,3,15.3,7.4"/>
		<path class="st6" d="M143.4,260.3c-7.7,9.4-10.3,19.1-12.9,30.6"/>
		<path class="st6" d="M118.4,262.1c2.2-3.2,6.9-4.7,10.7-5"/>
		<path class="st6" d="M123.6,258.4c4.6,7.3,4.1,16.6,6.1,24.6"/>
		<path class="st6" d="M135.4,318.5c6.2,0,12.6-0.6,18.7,0.7"/>
		<path class="st6" d="M143.3,319.2c-0.4,1.3-8.1,27.1-6.1,29.1"/>
		<path class="st6" d="M110.9,322.5c5.8-0.9,12.7-5,18.7-3.1"/>
		<path class="st6" d="M119.3,320.4c1.1,6.8,4.2,25.2,9.6,30.4"/>
		<path class="st20" d="M132.1,209.8h0.6c8.3,0,15,1.5,15,3.5c0,1.9-6.7,3.5-15,3.5h-0.6c-8.3,0-15-1.5-15-3.5
			C117.1,211.3,123.8,209.8,132.1,209.8z"/>
		<path class="st20" d="M163.7,42.9c2.2,1.8,67.7,25.4,64.2,107.8c0,0.6,4.9,1.6,4.9,0.4c0-7.2-1.7-25.5-2.7-30.9
			C224.8,92,207.6,58.8,163.7,42.9z"/>
		<path class="st20" d="M233.4,152.2c48,36.5,46.7,136.9-5,134.5c7.8,2.7,9.9,1,10.7,0.9c35.8-7.2,36.5-58.4,27.5-85.3
			c-0.6-1.7,3.8-1.6,2.9-4.4c-1.4-4.7-7.6-18.4-9.7-22.7C251.1,156.7,236.6,152.9,233.4,152.2z"/>
		<path class="st20" d="M191.4,271.6c0,0-25.9,1.8-48.4,70.4c0,0.1-0.1,0.2-0.1,0.3c-0.9,2.8-1.8,5.7-2.7,8.6
			c37.2-85.8,56.3-76.1,56.3-76.1L191.4,271.6z"/>
		<path class="st20" d="M74.3,201c-4.4,23.7-8.3,33-6.4,46.2c0.8,5.8,3,13.9,8.8,15.8c0.5,0.2,1.5,0.3,1.5,0.3s-2.3-0.3-3.2-0.9
			c-3.8-2.3-8.8-7.8-9.7-12.3C62.6,237.2,67,218.2,74.3,201z"/>
		<path class="st20" d="M275.8,70c0.7,9.7-14.5,100.5-15.8,105.3c-0.9,3.5-0.9,3.3,1.9,1.9c0.3-0.1,0.2-5.5,0.3-6.2
			c0.8-6.4,19.9-100,19.6-100.7C281.7,69.6,275.8,69.3,275.8,70z"/>
		<polygon class="st20" points="183.1,302.9 186.6,383.8 187.2,303.1 186.9,279.2 181.1,281.3 		"/>
		<polygon class="st20" points="232.1,291 233.5,365.8 236.2,290.4 236.1,289.5 232.1,291.4 		"/>
		<polyline class="st20" points="83.3,272.1 85.1,301.1 89.4,302 101.5,381.5 86.1,303.4 82.1,301.5 80.4,271.6 		"/>
		<path class="st6" d="M131.3,296.9c0-3.2,11.4-39.6,38.4-34.2c20.9,4.2,56.7,35.7,77,23c3.8-2.4,38.6-25.1,20.9-83.3"/>
		<path class="st6" d="M205.7,164c2.9-8.8,13.3-11.8,19.2-12.5c18.1-2.1,36,19.7,43.9,44.7c1.2,3.8-2.6,6.8-2.3,7"/>
		<path class="st6" d="M165.8,42.9c49.1,16.5,67.4,67.7,67,108"/>
		<path class="st6" d="M124.1,40.9c-1.2-2.3-3.2-6.2-2.2-8.9c0.1-0.1,1-1.1,1.2-1c0.8,0.4,1.4,1.8,2.4,2.4c3.9,2.1,8.2,3.6,12.5,4.6
			c2.5,0.6,5.1,0.8,7.6,1.4c0.6,0.1,1.8,0.2,1.8,0.2s-3.4-3.1-2.2-3.8c0.2-0.1,10.1,3.6,11,4c7,2.8,14.2,4.4,20.8,7.7"/>
		<path class="st6" d="M77.8,189.6c-2.5,8.7-29.1,72.9,0.9,74c12.4,0.4,30.8-31,50.2,21.2"/>
		<path class="st6" d="M260.7,68.4l21.9,0.6c0,0-13.2,66-20.4,111.1"/>
		<polyline class="st6" points="164.6,302.2 187.7,302.1 236.3,289.8 234.9,363.5 227.3,363.5 224.6,293.6 		"/>
		<path class="st6" d="M197.3,275.3c-28.9,0-41.8,48-58.5,75.8c-2.3,3.8-6.4-19.7-6.4-57.6"/>
		<polyline class="st6" points="165.9,303.8 178.3,384.7 188.3,384.5 186.7,302.7 		"/>
		<polyline class="st6" points="99.1,301.9 85.9,301.6 99.6,382.1 108.1,382.4 108.3,376.1 109.9,323.9 		"/>
		<polyline class="st6" points="89.4,270.5 80.5,271.1 82.6,301.9 87.5,301.6 		"/>
		<g>
			<g>
				<path class="st18" d="M128.2,196.8c7.3,0.2,13.9,0.2,20.4,0.5c5.3,0.2,6.8,3.6,6.5,6.8c-0.4,4.4-3.1,7.4-8,9
					c-0.3,0.1-0.5,0.1-1,0.3c5,2.8,5.1,8.4,8.4,13.5c-3.9,0-7.4-0.1-11-0.1c-1.9-3.3-3.4-6.5-4.8-9.6c-0.7-1.7-1.7-3-4.6-2.5
					c-0.8,3.8-1.3,7.7-1,12.1c-3.4,0-6.5-0.1-9.9-0.1C122.4,216.6,126.4,206.5,128.2,196.8z M137,203c-0.4,2-0.9,3.8-1.5,6
					c2.2-0.1,4.2-0.1,6.3-0.3c1.8-0.2,3-1.3,3.4-2.7c0.4-1.5-0.4-2.7-2.2-2.9C141.1,202.9,139.1,203,137,203z"/>
				<path class="st18" d="M184.4,205.4c-3.3,0.2-6.2,0.3-9.3,0.5c-0.1-2.5-1.5-3.8-4.1-3.9c-1.7,0-3.1,0.4-3.9,2.2
					c-0.1,1.4,0.8,1.9,2,2.2c2.2,0.6,4.4,1.1,6.6,1.7c1.2,0.3,2.4,0.8,3.6,1.3c7.4,3.2,5.7,11.7-0.2,15.6c-2,1.3-4.4,2.2-6.6,2.6
					c-3.6,0.6-7.2,0.4-10.7-0.6c-4.6-1.3-7.5-5.3-6.8-10.2c2.9-0.1,5.9-0.3,9-0.4c0.1,0.6,0.2,1.1,0.3,1.7c0.8,2.9,3.9,4.3,7,3.2
					c1.4-0.5,2.5-1.4,2.7-2.8c0.2-1.3-0.5-2.2-1.7-2.7c-1-0.4-2.1-0.7-3.1-1c-2.2-0.7-4.4-1.2-6.4-2c-3.9-1.6-5.4-4.4-4.6-7.7
					c0.9-3.7,3.8-6.7,8.2-7.9c4.1-1.1,8.2-1.1,12.2,0.1C182.7,198.5,184.5,201.1,184.4,205.4z"/>
			</g>
		</g>
	</g>
	<circle class="st18" cx="182.3" cy="104.7" r="2.3"/>
	<circle class="st18" cx="108.8" cy="105.6" r="2.3"/>
</g>
</svg>
