<?xml version="1.0" encoding="utf-8"?>
<!-- Generator: Adobe Illustrator 26.0.3, SVG Export Plug-In . SVG Version: 6.00 Build 0)  -->
<!DOCTYPE svg PUBLIC "-//W3C//DTD SVG 1.1//EN" "http://www.w3.org/Graphics/SVG/1.1/DTD/svg11.dtd" [
	<!ENTITY ns_extend "http://ns.adobe.com/Extensibility/1.0/">
	<!ENTITY ns_ai "http://ns.adobe.com/AdobeIllustrator/10.0/">
	<!ENTITY ns_graphs "http://ns.adobe.com/Graphs/1.0/">
	<!ENTITY ns_vars "http://ns.adobe.com/Variables/1.0/">
	<!ENTITY ns_imrep "http://ns.adobe.com/ImageReplacement/1.0/">
	<!ENTITY ns_sfw "http://ns.adobe.com/SaveForWeb/1.0/">
	<!ENTITY ns_custom "http://ns.adobe.com/GenericCustomNamespace/1.0/">
	<!ENTITY ns_adobe_xpath "http://ns.adobe.com/XPath/1.0/">
]>
<svg version="1.1" id="Слой_1" xmlns:x="&ns_extend;" xmlns:i="&ns_ai;" xmlns:graph="&ns_graphs;"
	 xmlns="http://www.w3.org/2000/svg" xmlns:xlink="http://www.w3.org/1999/xlink" x="0px" y="0px" width="393.5px" height="436px"
	 viewBox="0 0 393.5 436" style="enable-background:new 0 0 393.5 436;" xml:space="preserve">
<style type="text/css">
	.st0{fill:#FFFFFF;}
	.st1{fill:#CAA77A;}
	.st2{fill:#B6B1AE;}
	.st3{fill:none;stroke:#2D1F04;stroke-width:2.7806;stroke-linecap:round;stroke-linejoin:round;stroke-miterlimit:10;}
	.st4{fill:#3F2719;}
	.st5{fill:#FFDBAF;}
	.st6{fill:#9D7B51;}
	.st7{fill:none;stroke:#2D1F04;stroke-width:3.2369;stroke-linecap:round;stroke-linejoin:round;stroke-miterlimit:10;}
	.st8{fill:#251707;}
	.st9{fill:none;stroke:#2D1F04;stroke-width:8.0658;stroke-linecap:round;stroke-linejoin:round;stroke-miterlimit:10;}
	.st10{fill:none;stroke:#9D7B51;stroke-width:4.1072;stroke-linecap:round;stroke-linejoin:round;stroke-miterlimit:10;}
	.st11{fill:#2D1F04;}
	.st12{fill:#FFDB1F;}
	.st13{fill:#584B7F;}
	.st14{opacity:0.23;}
	.st15{opacity:0.23;fill:#3F2719;}
	.st16{fill:none;stroke:#866CC7;stroke-width:8;stroke-linecap:round;stroke-linejoin:round;stroke-miterlimit:10;}
	.st17{fill:#866CC7;}
	.st18{fill:#D2D2D2;}
	.st19{opacity:0.57;fill:#FFFFFF;}
	.st20{fill:url(#SVGID_1_);}
	.st21{fill:#5C5C5C;}
	.st22{opacity:0.58;fill:#3F2719;}
	.st23{fill:url(#SVGID_00000170238232759558022570000008922046100459286144_);}
</style>
<metadata>
	<sfw  xmlns="&ns_sfw;">
		<slices></slices>
		<sliceSourceBounds  bottomLeftOrigin="true" height="436" width="393.5" x="793.8" y="23.5"></sliceSourceBounds>
	</sfw>
</metadata>
<path class="st0" d="M392.4,59.5c-0.1-0.1-0.1-0.2-0.2-0.3c-1.1-2.2-2.7-4.2-4.4-5.9c-4.2-4.1-9.4-7-14.8-9.2
	c-8.3-3.3-17.2-5.1-25.9-6.9c-2.7-0.6-5.5-1.1-8.2-1.6c-35.7-6.6-80.8-8.9-121.2-9.6c-0.7-1.3-1.5-2.5-2.5-3.6
	c-1.3-1.5-2.9-2.8-4.7-3.9c-1.6-1-3.3-1.5-5.2-1.5c-0.4-0.6-0.8-1.2-1.2-1.8c0-0.1-0.1-0.1-0.1-0.2c-0.2-0.2-0.3-0.4-0.5-0.6
	c-3.1-3.6-7.4-6.2-12.4-7.1c-0.3,0-0.6-0.1-0.8-0.1c0,0-0.1,0-0.1,0c-0.1,0-0.3,0-0.4,0c-0.1,0-0.3,0-0.4,0c-0.1,0-0.2,0-0.3,0
	c-0.1,0-0.2,0-0.2,0c-1.2,0.1-2.4,0.3-3.5,0.8c-0.9-1-1.9-1.9-2.9-2.8c-3.7-2.9-7.7-4.4-11.6-5c-0.7-0.1-1.3-0.2-1.9-0.2
	c-0.2,0-0.3,0-0.5,0c-0.5,0-1.1-0.1-1.6-0.1c-0.1,0-0.2,0-0.3,0c-1,0-2,0.1-2.9,0.2c-0.2,0-0.4,0-0.6,0.1c-0.1,0-0.2,0-0.3,0
	c-2.4,0.3-4.6,0.8-6.4,1.5c-1.5,0.5-2.5,1-2.7,1.1c-0.1,0-0.2,0.1-0.2,0.1c-3.1,1.6-5.1,4.6-5.5,8c0,0.1,0,0.2,0,0.4
	c-1.2,0.6-2.3,1.5-3.1,2.5c-0.1,0.2-0.3,0.4-0.4,0.6c-2.4-3.8-6.5-6.3-11.3-6.3c-0.2,0-0.4,0-0.6,0c-0.1,0-0.3,0-0.4,0
	c-0.3,0-0.5,0-0.7,0.1c0,0,0,0,0,0c-2,0.3-3.8,0.9-5.5,2c0,0,0,0,0,0c-0.2,0.1-0.3,0.2-0.5,0.3c-0.2,0.1-0.4,0.3-0.6,0.4
	c-0.1,0.1-0.2,0.1-0.3,0.2c-0.7,0.6-1.3,1.2-1.8,1.9c0,0,0,0,0,0c-0.6,0.7-1.1,1.5-1.5,2.3c0,0,0,0,0,0c-0.4,0.8-0.7,1.7-1,2.6
	c0,0,0,0.1,0,0.1c-0.1,0.5-0.2,1-0.3,1.5c-2,0-4,0.3-6,1c-2.3-1-4.9-1.8-7.8-1.8c-0.4,0-0.8,0-1.2,0c-2.3,0.2-4.6,0.8-6.8,1.9
	c-0.4,0.2-0.7,0.4-1.1,0.6c-0.7,0.4-1.5,1-2.3,1.7c0,0-0.1,0.1-0.1,0.1c-0.8,0.7-1.5,1.5-2.1,2.4c-0.9-0.9-2-1.7-3.2-2.3
	c-0.6-0.3-1.2-0.6-1.7-0.9c-0.1-0.1-0.3-0.1-0.4-0.2c-0.2-0.1-0.4-0.2-0.6-0.2c0,0-0.1,0-0.1,0c-1.4-0.5-3-0.8-4.5-0.9
	c-0.7-0.1-1.3-0.1-2-0.1c-0.6,0-1.2,0-1.9,0.1c-0.1,0-0.3,0-0.4,0c-0.4,0-0.8,0.1-1.2,0.2c-0.2,0-0.4,0.1-0.6,0.1
	c-0.8-0.1-1.5-0.1-2.3-0.1c-0.3,0-0.6,0-1,0c-0.1,0-0.3,0-0.4,0c-1,0.1-1.9,0.3-2.9,0.5c-0.1,0-0.3,0.1-0.5,0.1
	c-0.1,0-0.2,0-0.3,0.1c-2,0.6-4.2,1.5-6.3,3.1c-0.1,0-0.1,0.1-0.2,0.1c0,0,0,0,0,0c-0.9,0.7-1.8,1.5-2.6,2.3
	c-0.1,0.1-0.1,0.2-0.2,0.2c0,0,0,0-0.1,0c-0.1,0-7.1,0.1-7.1,0.1c-0.1,0-0.3,0-0.4,0c-0.1,0-0.1,0-0.2,0c-0.1,0-0.1,0-0.2,0
	c-1.3,0.1-3.2,0.6-5.1,1.9c-0.1,0-0.1,0.1-0.2,0.1c-0.2,0.1-0.4,0.3-0.5,0.4c-0.2,0.2-0.4,0.4-0.6,0.6c0,0-0.1,0.1-0.1,0.1
	c-0.3,0.4-0.7,0.8-1,1.2c-1.6,1.9-2.5,4.2-2.4,6.7l0,0.9c-0.2,2.3-0.3,4.7-0.2,6.4c0,0.2,0,0.3,0,0.5c0,0.1,0,0.1,0,0.2
	c0,0.3,0,0.6,0,0.8c0,0.3,0,0.5,0,0.8c0,0.6,0,1.1,0.1,1.6c0,0.3,0,0.6,0.1,1c0,0.2,0,0.5,0.1,0.7c0,0.4,0.1,0.7,0.1,1
	c0,0.1,0,0.1,0,0.2c0,0,0,0,0,0.1c0,0.3,0.1,0.6,0.1,0.8c0,0,0,0.1,0,0.1l0,0.6c0,2.3,0.8,4.4,2.2,6c0.1,0.1,0.1,0.2,0.2,0.3
	c0.1,0.2,0.2,0.4,0.4,0.5c0.2,0.2,0.3,0.4,0.5,0.6c0,0.1,0.1,0.1,0.1,0.2c1.9,2.2,4.3,3,6.3,3.2c0.1,0,0.2,0,0.3,0
	c0.1,0,0.2,0,0.4,0c0.2,0,0.5,0,0.6,0c0.1,0,7.1-0.1,7.1-0.1c0.1,0,0.2,0,0.3,0c0,0,0,0,0,0c0,0,0,0,0.1,0c1.8,2.9,4.1,5.8,6.8,8.6
	c0.2,0.3,0.5,0.8,0.8,1.4c-0.2,0.3-0.4,0.5-0.6,0.8c-0.3,0-0.6,0.1-0.8,0.1c-1.7,0.3-3.4,1-4.8,2.1c-1.8,1.5-3.8,3.1-5.8,4.7
	C34.8,100,6.8,122.6,1.6,149.9c-5.9,31.2,5.7,39.1,18.2,44.5l0.3,0.1c9.4,4.1,18,7.5,25.8,10.4c0,2-0.2,4.4-0.3,6.2
	c-0.2,2.8-0.4,6-0.4,9.3c0,1.4,0,2.9,0.1,4.3c0.3,6.7,1.7,13.6,5.7,19.1c0.2,0.7,0.4,1.4,0.7,2c0.2,0.3,0.3,0.7,0.5,1.2
	c-0.5,0.7-1,1.5-1.4,2.3c-1.5,3.1-1.7,6.5-0.8,9.8c-1.6,5.6,0.5,11.5,4.9,14.9c-2,19.4-6.8,46.8-9.8,63.6c-1.1,6.1-2,11.4-2.6,15.1
	c-0.5,3.2,0.5,6.4,2.8,8.7c2.3,2.3,5,4.4,8,6.3c-1,3.8-1.7,7.7-1.8,11.4c0,2.2,0.2,4.4,0.6,6.4c0,0.6,0.1,1.1,0.3,1.7
	c1.1,4.6,3.1,8.9,5.2,13.5c3.1,6.8,6.7,14.5,9.1,26.6c0.5,2.9,2.2,5.4,4.6,6.9c0.1,0.1,0.3,0.2,0.4,0.3c0.1,0.1,0.2,0.1,0.3,0.2
	c0.7,0.4,1.4,0.7,2.1,0.9c0.9,0.2,1.7,0.3,2.6,0.3c2.9,0,5.6-1.2,7.6-3.5c13.7-15.9,18.2-29.8,20.5-40c0.3-1.4,0.6-2.8,0.9-4.1
	c0.1-0.5,0.2-0.9,0.3-1.4c8.2,1.8,16,3.2,22.3,4.4c0.6,0.1,1.2,0.2,1.8,0.2c3.6,0,6.9-1.9,8.7-5.1c1.7-3,3.4-6.3,5.1-9.7
	c2.7-5.6,5.4-11.4,7.8-16.8c0.6-1.4,1.3-2.9,2-4.4c1.3,2.1,3.3,3.7,5.7,4.4c2.9,0.9,6.1,1.5,9.5,1.9c0.1,0.1,0.2,0.2,0.2,0.3
	c0.3,0.3,0.6,0.7,0.9,1c0.1,0.1,0.2,0.2,0.3,0.3c0,0,0.7,0.7,0.8,0.8c3.4,3,8.3,6,15.5,9.5c0.1,0.1,0.2,0.1,0.3,0.2
	c0.6,0.3,1.1,0.5,1.7,0.8c0.7,0.3,1.4,0.7,2.1,1c0.5,0.2,0.9,0.4,1.3,0.6c15.3,6.9,29,14,31.2,15.5c1.4,1.1,2.8,1.9,4.3,2.4
	c1.5,0.6,3,0.8,4.5,0.8c0.9,0,1.7-0.1,2.6-0.3c0.3-0.1,0.6-0.2,0.9-0.3c0.1,0,0.2-0.1,0.4-0.1c0.1,0,0.2-0.1,0.3-0.1
	c0.2-0.1,0.4-0.2,0.6-0.3c1.6-0.7,3-1.8,4.2-3.2c2.8-3.5,3.5-8.3,2.2-14.3c-0.6-2.9-1.7-5.9-3.2-9c0-0.1-0.1-0.1-0.1-0.2
	c-0.2-0.5-0.5-0.9-0.7-1.4c-0.2-0.3-0.3-0.6-0.5-0.9c-0.1-0.2-0.3-0.5-0.4-0.7c-0.3-0.5-0.5-0.9-0.8-1.4c0-0.1-0.1-0.2-0.1-0.2
	c-2.2-3.6-5-7.4-8.4-11.3c3.4-1.4,6.2-2.8,8.1-3.9c3.1-1.8,5-5.2,5-8.8c-0.1-11.7-2.2-30.3-3.8-45.2c-0.4-3.8-0.9-7.8-1.2-11.2
	c2.4-1.1,4.5-2.9,5.9-5.2c2-3.2,2.7-6.9,1.8-10.6c0,0,0-0.1,0-0.1c0.7-3.2,0.4-6.7-1.3-9.8c-0.4-0.7-0.8-1.3-1.2-1.9
	c1.6-3.6,2.1-7.7,2.1-11.7c0-5.8-1.2-11.5-2-15.8c-0.5-2.6-1.1-5.5-1.2-6.8c-0.1-6.2-1.3-15.3-5.4-26.9c6.2-4.4,11-9.6,14.1-16.6
	c1.5-3.4,2.5-7.1,2.9-11c0-0.1,0-0.2,0-0.3c0-0.6,0.1-1.1,0.1-1.7c0-0.2,0-0.4,0-0.7c0-0.4,0-0.9,0-1.3c0-0.3,0-0.5,0-0.8
	c0-0.5-0.1-1.1-0.1-1.6c0-0.4-0.1-0.8-0.2-1.3c0-0.2-0.1-0.4-0.1-0.6c-0.1-0.5-0.2-1-0.3-1.5c0,0,0-0.1,0-0.1c-1-4.8-3-9.5-6.1-13.8
	c-0.3-0.4-0.6-0.7-0.9-1.1c-4.4-5.7-10.8-11.2-19.8-16c-0.7-0.4-1.5-0.7-2.2-1.1c5.2-13.8,7.5-26.8,6.9-38.8c2.6-0.7,5-2.5,6.3-5.1
	c2.5-4.9,0.5-10.9-4.4-13.4c-2-1-4.1-2-6.4-3c29.5,0.4,62.5,1.7,93,4.5c0.3,0,0.5,0,0.8,0.1c1.2,0.1,2.5,0.2,3.7,0.4
	c0.4,0,0.8,0.1,1.3,0.1c3.5,0.4,7,0.7,10.5,1.1c0.8,0.1,1.6,0.2,2.4,0.3c0.8,0.1,1.6,0.2,2.4,0.3c1,0.1,1.9,0.2,2.9,0.4
	c0.7,0.1,1.3,0.2,2,0.3c1.6,0.2,3.2,0.4,4.7,0.6c0.3,0,0.6,0.1,0.9,0.1c1.4,0.2,2.7,0.4,4.1,0.6c0.4,0.1,0.8,0.1,1.3,0.2
	c1.3,0.2,2.7,0.4,4,0.6c0.3,0,0.5,0.1,0.8,0.1c3.3,0.5,6.5,1.1,9.6,1.7c0.2,0,0.3,0.1,0.5,0.1c1.4,0.3,2.9,0.6,4.3,0.9
	c0.1,0,0.2,0,0.3,0.1c1.5,0.3,3,0.7,4.5,1c0.1,0,0.2,0,0.2,0c0.1,0,0.1,0,0.2,0c0.2,0,0.4,0.1,0.6,0.1c0.1,0,0.2,0,0.3,0.1
	c0.1,0,0.1,0,0.2,0c0.4,0,0.9,0.1,1.3,0.1c1.1,0,2.3-0.2,3.3-0.5c0,0,0.1,0,0.1,0c0.2-0.1,0.4-0.1,0.6-0.2c0.1,0,0.2-0.1,0.3-0.1
	c0.1-0.1,0.3-0.1,0.4-0.2c0.2-0.1,0.4-0.2,0.6-0.3c0,0,0.1-0.1,0.1-0.1C393.5,72.9,394.8,65,392.4,59.5z"/>
<g>
	<g>
		<path class="st1" d="M229.7,383.7c-2.4-1.9-18.4-10-33.2-16.7c-1.7-0.8-3.3-1.5-5-2.3c-9.8-4.7-18.5-10-16.2-14.5
			c2.8-5.7,3.9-12.6-2.4-23.5c-9.8,0-20-1.2-29.2-3.2c-9.8,11.2-20.2,17.2-28.8,25c-8.3,7.5-11.5,14.3-17.1,30.3
			c-1.1,3.1-1.7,6.9-2.7,11.5c-2.1,9.2-5.9,21.2-18.4,35.7c-4.3-22-12.3-31.4-14.5-41.1c-0.4-1.8-0.6-3.5-0.6-5.3
			c0.2-10.9,8.3-25.8,9.3-33.9c3.3-26.8,8.9-39.4,10.1-47.6c1-6.6-1.2-15.9-5.1-24c-7.4-15.6-12.5-28.7-14-40.5
			c-2.3-18-1.6-18.8-0.9-26.4c0.5-5.4-6.2-20.2-41.4-24.4c-0.8-13.6,42.4-31.2,43.3-42.9C66.7,86.4,87.7,52.5,124,35.5
			c7.2-3.5,14.7-5.4,22.4-8.2c1.4-0.5,4.4-1.3,5.5-2.9c1.2-1.7,0.4-4.2,0.5-4.2c6.4,1.1,3.5,6.9,3.5,6.9s1.3-0.1,1.9-0.2
			c2.7-0.6,5.5-2.9,5.3-7c-0.3-5.4-6.1-7.6-5.2-8c0.2-0.1,10.4-4.8,18.3,1.4c4.1,3.2,6,8.5,5,14.3c9.7-1.8,8.1-10.2,8.2-10.2
			c8.6,1.5,11.8,11.6,5.7,15.7c0,1,4.2,0.8,7-1.2c2.1-1.5,3-4.8,3.2-4.7c8.1,5,4.3,13.7-2.9,14.5c-0.5,0.1-1.6,0.1-1.5,0.6
			c0.1,0.2,1.7,1.3,4.4,1.4c2.8,0,3.8-1.3,4-1c1.2,3.7-4.8,6.7-7.1,5.6c4.4,3.1,7.9,7,10.8,12c2.1,3.6,3.8,7.3,5,11v0
			c6.7,21-0.1,43.8-9.7,63c-1,2-2.4,4.3-2.7,6.5c-0.2,1.1,0.5,3,0,4c-0.2,0.4-1.2-1.1-1.3-0.6c-0.3,2.1,0,4.5,0.2,6.5
			c0.1,0.8,1,2.9,0.4,2.3c-0.2-0.2-0.7-1.9-1.5-1.7c-0.4,0.2,0.9,11.7,4,18.9c0,0,0,0,0,0h0c0,0,0,0,0,0c-0.3-2.4,6,4.4,11.8,17.8
			c9,20.8,9.6,34.3,8.8,45.6c-1,22.3,1.8,54.2-11.3,75.7c-0.1,0.2-0.3,0.5-0.5,0.7c4.9,13.2,1,32-4.6,37.4c2.4,2.3,4.9,4.7,7.2,7.2
			c7.1,7.6,13.1,15.9,14.9,23.9C235,384.4,233,386.3,229.7,383.7z"/>
		<g>
			<path class="st2" d="M229.5,383.7c-2.4-1.9-18.4-10-33.2-16.7c-1.7-0.8-3.3-1.5-5-2.3c6.3-5.7,18.3-10.2,27.3-10.2h0
				c0.5,0.5,1,1.1,1.5,1.7c0.4,0.4,0.8,0.8,1.1,1.3c1.4,1.6,2.8,3.3,4,4.9c0.5,0.7,1,1.3,1.4,2c3.3,4.6,5.7,9.4,6.7,14
				C234.8,384.4,232.8,386.3,229.5,383.7z"/>
			<path class="st2" d="M94.9,390.2c-2.1,9.2-5.9,21.2-18.3,35.7c0,0,0-0.1,0-0.1c-4.3-21.8-12.2-31.2-14.4-40.9c0,0,0-0.1,0-0.1
				C75.7,380.6,85.4,381.8,94.9,390.2z"/>
		</g>
		<path class="st3" d="M218.8,354.5c-9,0-21,4.5-27.3,10.2"/>
		<path class="st3" d="M232.4,384.2c-2.4-6-18.3-24-26.3-26.6"/>
		<path class="st4" d="M63.6,208.9"/>
		<path class="st3" d="M63.6,208.9"/>
		<path class="st3" d="M216.2,309.9c4.9,13.2,1,32-4.6,37.4c10,9.3,19.7,20.5,22,31c1.3,6-0.7,7.9-4,5.3c-2.4-1.9-18.4-10-33.2-16.7
			c-11.5-5.2-23.9-11.5-21.2-16.9c2.9-5.8,4.4-12.2-2.4-23.4"/>
		<g>
			<path class="st5" d="M214.7,88.1c-2.1-8.6-6.1-16.1-13.1-19.8c-9.4-5-15.4-4-24-5.9c-3.6-0.8-6.4-2.2-7-5.8
				c-0.3-1.6,0.3-3.3,1.9-5.6c-3.2,0-6.7,1.3-9.3,3.4c-5.3,4.3-12.1,5.2-18.3,5c-21.9-0.7-35.8,1.9-46.4,21.1
				c-2.4,4.3-6,14.2-3.6,25.2c3.6,16.1,5.5,22.8,22.9,34.8c20.7,14.3,63.6,21.4,85-5.6C212.9,122.1,218.7,104.2,214.7,88.1z"/>
			<path class="st6" d="M174.6,95.4c7.2-3.6,13.1,14.6,12.5,19.9c-2,18-28.3,17-40.4,10.9c-17.6-8.8,3.9-37.1,16.5-32.1"/>
			<path class="st6" d="M214.7,88.1c3.3,13.4-0.5,28.5-3.5,30.7c-2.3,1.7-14.5-5.6-22.6-17.8c-8.6-12.7-9.2-26.1-6.9-28.3
				c1.3-1.3,20.5-3.1,23.1-2.5C207.9,71.1,212.4,79,214.7,88.1z"/>
			<path class="st6" d="M147.4,72.2c2,37.6-42.6,57.5-47.6,50.2c-3.2-4.7-9.5-24.3-2.4-39.8c3.7-8,11.3-17.1,15.2-17.1
				c6.9-0.1,16,2.1,23.4,3.8C142.1,70.7,147,69.6,147.4,72.2z"/>
			<path class="st3" d="M201.1,47.5c4.8,3.2,8.7,7.3,11.9,12.7c14,23.7,6.6,51.4-4.7,74c-1,2-2.4,4.3-2.7,6.5c-0.2,1.1,0.5,3,0,4
				c-0.2,0.4-1.2-1.1-1.3-0.6c-0.3,2.1,0,4.5,0.2,6.5c0.1,0.8,1,2.9,0.4,2.3c-0.2-0.2-0.7-1.9-1.5-1.7c-0.4,0.1,0,11.3,0.2,12.4"/>
			<path class="st7" d="M166.8,96.7c1.3,4.8,1.6,16-0.3,19.4c-5.1,0-10.2-1.7-11.2-4.2"/>
			<path class="st8" d="M179,95.5c0.1-2.7-5.2-5.2-11.9-5.5c-6.7-0.3-12.3,1.6-12.4,4.3c-0.1,2.7,5.2,5.2,11.9,5.5
				C173.3,100.1,178.8,98.2,179,95.5z"/>
			<path class="st9" d="M155.8,73.2c0,0-7.7-0.7-16.3-2.3c-10.7-2-16.8-6.9-21.5-6.7c-4.9,0.2-18.6,6.4-18.6,6.4"/>
			<path class="st9" d="M179.1,74.8c0,0,7.7-0.1,15.4-1c6.9-0.8,14.2-4,18-4c4.1,0.1,15.5,5.9,15.5,5.9"/>
			<path class="st9" d="M147.5,52.2"/>
			<g>
				<line class="st10" x1="192.1" y1="154" x2="192.1" y2="160"/>
				<line class="st10" x1="185.7" y1="157" x2="185.7" y2="163"/>
			</g>
			<path class="st7" d="M166.5,116.1c3,0.5,4.6,0.5,6.5,0.3"/>
			<path class="st3" d="M202.5,48.1c2.4,1.2,7.9-1.8,6.7-5.5c-0.1-0.4-1.2,1-4,1c-2.7,0-4.3-1.2-4.4-1.4c-0.2-0.5,0.9-0.6,1.5-0.6
				c7.2-0.8,10.9-9.5,2.9-14.5c-0.2-0.1-1.1,3.2-3.2,4.7c-2.8,2-7,2.2-7,1.2c6.1-4,2.9-14.1-5.7-15.7c-0.2,0,1.5,8.5-8.2,10.2"/>
		</g>
		<g>
			<path class="st11" d="M113.3,82.5c3.4,4.1,9.4,5.3,14.5,4.5c1.8-0.3,3.5-0.9,5.2-1.8c1.6-0.9,3.2,1.3,2,2.6
				c-5.1,5.2-13.8,5.4-19.8,1.7c-1.7-0.9-7.1-6-3.8-7.6C112.1,81.6,112.8,81.9,113.3,82.5L113.3,82.5z"/>
		</g>
		<g>
			<path class="st11" d="M191,89c4,4.7,13.2,4.6,16.3-1.2c0.9-1.5,3.3-0.6,3,1.1c-1.4,7.7-11.2,10.1-17.4,6.7
				c-1.9-0.6-7.2-5.9-3.7-7.4C189.8,88.1,190.6,88.4,191,89L191,89z"/>
		</g>
		<path class="st3" d="M61,207.1c-0.7,7.5,0.3,17.8,0.9,26.4c0.9,11.9,6.6,24.9,14,40.5c3.9,8.1,6.1,17.3,5.1,24
			c-1.2,8.2-6.8,20.8-10.1,47.6c-1,8.1-9.1,23-9.3,33.9c-0.2,12,10,20.5,15.1,46.5c18.7-21.7,17.9-38,21.1-47.2
			c5.5-16,8.8-22.9,17.1-30.3c8.6-7.7,19-13.7,28.8-25c26.6,5.8,61.1,5.2,73-14.2c13.2-21.4,10.3-53.3,11.3-75.7
			c0.5-13.7,0.3-24.8-8.8-45.6c-5.9-13.5-12.2-20.4-11.8-17.7"/>
		<path class="st3" d="M180.8,28.5c1.5-6.2-0.5-11.9-4.8-15.3c-7.9-6.2-18.1-1.5-18.3-1.4c-0.9,0.4,5,2.6,5.2,8
			c0.2,4.1-2.6,6.4-5.3,7c-0.6,0.1-1.9,0.2-1.9,0.2s2.9-5.8-3.6-6.9c-0.1,0,0.7,2.5-0.4,4.2c-1.1,1.6-4.1,2.3-5.5,2.8
			c-7.6,2.8-15.2,4.7-22.4,8.2c-33.2,15.5-53.6,45.2-59.7,91"/>
		<path class="st3" d="M78.4,390.2"/>
		<path class="st3" d="M58.5,369.1"/>
		<path class="st3" d="M62.2,384.8c13.6-4.2,23.3-3,32.9,5.4"/>
		<path class="st3" d="M76.7,425.9c4.8-21.7,1.9-28.6,3.1-42.9"/>
		<g>
			<path class="st0" d="M205.6,260c-3.7,0.5-11.9,1.4-15.8,1.7c0,0,0-0.1,0-0.1c-4.5-23.4-10-35.5-20.8-54.8
				c-0.1-0.2-0.2-0.3-0.3-0.5c4.3-1.1,13-2.8,17.1-4.2c4.7,8.1,10.2,19.3,14.3,31.9C202.7,242.2,204.7,251,205.6,260z"/>
			<path class="st12" d="M189.8,261.6c-39.1,2.4-83.2-5.7-126.1-19.5c-0.1,0-0.2-0.1-0.3-0.1c-0.1-0.3-0.1-0.6-0.2-0.9
				c-13.7-7.6-4.8-33.8-8-43.6c21.3,7.6,37.1,8.1,37.1,8.1h0.2c0-0.1,0-0.2,0-0.3c0.1-0.5,0.4-2.7,0.4-3.4c0.1-1.2,0.2-2.5,0.3-3.9
				c0.1-1.4,0.2-4.2,0.2-4.2c0-0.7,0-1.4,0.1-2.1c0-3.6,0-7.4-0.2-11.3c-0.3-6.4-0.8-13.3-1.4-20.2c5,3,11.6,5.2,17.4,7.1
				c1.6,15.8,5.3,26.5,8.8,36.9c0,0.1,0,0.3-0.1,0.5c10.3,3.5,12.1,4.8,22.3,4.9c1.3,0,2.7,0,4,0c2,0,3.9-0.1,5.8-0.2
				c6.4-0.4,12.7-1.4,18.7-2.7C179.8,226.1,185.3,238.1,189.8,261.6z"/>
			<path class="st12" d="M228.7,255c-0.4,0.1-0.7,0.2-1.1,0.3c0,0,0,0-0.1,0c-7.1,2-14.4,3.6-22,4.6c-0.9-9-2.9-17.8-5.6-26
				c-2.2-17.3-3.3-27-4.4-35.6c1.8-0.8,3.7-1.5,5.4-2.4c7.4-3.4,13.2-6.3,17.8-9.2c0,0,0,0,0,0c1-0.6,1.9-1.2,2.8-1.8
				c7.2,14.8,9.7,27,9.9,35.6C231.7,229.2,240.4,249.2,228.7,255z"/>
			<path class="st0" d="M200,234c-4.1-12.6-9.5-23.7-14.3-31.9c3.4-1.2,6.7-2.4,9.9-3.8C196.7,206.9,197.8,216.7,200,234z"/>
		</g>
		<path class="st13" d="M60.7,241.5c1.8,3.6,3.2,10.6,5,14.8c1.5,20.1-10.2,79.2-13.3,98.2c14,13.8,49.7,21.3,78,26.4
			c10.9-19.4,21.4-50,26.9-50.4c5.4-0.3,6.1,11.9,5.1,19.7c23.5,6.8,60.1-5.8,70-11.6c-0.2-19.4-6.1-60.2-5.7-65.7
			c0.4-5.5,4.2-15.7,5.7-18.8C184.2,269.9,121.1,261.4,60.7,241.5z"/>
		<path class="st3" d="M60.7,241.5c1.8,3.6,3.2,10.6,5,14.8c1.5,20.1-10.2,79.2-13.3,98.2c14,13.8,49.7,21.3,78,26.4
			c10.9-19.4,21.4-50,26.9-50.4c5.4-0.3,6.1,11.9,5.1,19.7c23.5,6.8,60.1-5.8,70-11.6c-0.2-19.4-6.1-60.2-5.7-65.7
			c0.4-5.5,4.2-15.7,5.7-18.8C184.2,269.9,121.1,261.4,60.7,241.5z"/>
		<path class="st3" d="M55.2,197.5c3.2,9.7-5.8,36.3,8,44"/>
		<path class="st3" d="M169.7,206.2c11,19.7,16.6,31.7,21.1,55.4"/>
		<path class="st3" d="M185.7,202.5c7.8,13.5,17.7,35.2,19.8,57.9"/>
		<path class="st3" d="M221.6,185.4c7.2,14.8,9.7,27,9.9,35.6s8.8,28.6-2.8,34.4"/>
		<path class="st3" d="M195.6,198.7c1.1,8.6,2.1,18.4,4.4,35.7"/>
		<g class="st14">
			<g>
				<path class="st4" d="M190.3,323c5.3-16.3,7.7-32.8,8.6-46.6c5.7,7.3,9,19.2,10.9,33.2c2-10.9,0.2-26.1-3.7-36.4
					c-7.1,1.7-12.1,3-20.4,2.7C191.7,290.7,191.5,303.9,190.3,323z"/>
				<path class="st4" d="M79.8,264.8c-3.9,14.2-8.3,35.7-8.6,51.7c6.5-20.8,10.2-36.4,19.4-48C84.5,267.2,79.8,264.8,79.8,264.8z"/>
				<path class="st4" d="M112.5,273.1c0.5,12.3-10,42.2-16.3,58.3s-11.3,4.9-5.5-22.5c0.9,9.2,2.5,23.2,6.8,6.4s4.3-36.4,3.3-44.9
					C105.6,270.2,112.5,273.1,112.5,273.1z"/>
				<path class="st4" d="M123.9,273.8c-7.5,17.7-6,36.2-5.5,49.2c1.2-25.9,6.6-37,15.6-47C132.1,274.8,123.9,273.8,123.9,273.8z"/>
				<path class="st4" d="M137.5,277.9c2.8,7.1,3.8,15.2,4,21.8c2-7.7,1.9-18.2,1-21.3C140.9,277.6,137.5,277.9,137.5,277.9z"/>
				<path class="st4" d="M162.8,277.7c0,0.3,0,0.6,0,0.9c0.1,5.7,4.5,13,5.6,23.5c1-7.7-0.8-20.4-1.4-24.2L162.8,277.7z"/>
			</g>
			<g>
				<path class="st15" d="M190.3,323c5.3-16.3,7.7-32.8,8.6-46.6c5.7,7.3,9,19.2,10.9,33.2c2-10.9,0.2-26.1-3.7-36.4
					c-7.1,1.7-12.1,3-20.4,2.7C191.7,290.7,191.5,303.9,190.3,323z"/>
				<path class="st15" d="M79.8,264.8c-3.9,14.2-8.3,35.7-8.6,51.7c6.5-20.8,10.2-36.4,19.4-48C84.5,267.2,79.8,264.8,79.8,264.8z"
					/>
				<path class="st15" d="M112.5,273.1c0.5,12.3-10,42.2-16.3,58.3s-11.3,4.9-5.5-22.5c0.9,9.2,2.5,23.2,6.8,6.4s4.3-36.4,3.3-44.9
					C105.6,270.2,112.5,273.1,112.5,273.1z"/>
				<path class="st15" d="M123.9,273.8c-7.5,17.7-6,36.2-5.5,49.2c1.2-25.9,6.6-37,15.6-47C132.1,274.8,123.9,273.8,123.9,273.8z"/>
				<path class="st15" d="M137.5,277.9c2.8,7.1,3.8,15.2,4,21.8c2-7.7,1.9-18.2,1-21.3C140.9,277.6,137.5,277.9,137.5,277.9z"/>
				<path class="st15" d="M162.8,277.7c0,0.3,0,0.6,0,0.9c0.1,5.7,4.5,13,5.6,23.5c1-7.7-0.8-20.4-1.4-24.2L162.8,277.7z"/>
			</g>
		</g>
		<path class="st16" d="M63.6,255.4c36.6,17.2,120.5,24.6,168,14"/>
		<path class="st16" d="M63.6,263.1c82.3,26.7,147.3,11.2,168,0"/>
		<g>
			<path d="M97.6,184c7.1,0.3,14,0.8,20.9,1.8c5.6,0.8,8,4.6,8.8,8.1c1.2,4.9-0.5,8.1-4.9,9.4c-0.2,0.1-0.5,0.1-1,0.2
				c6.2,3.6,8.1,9.8,11.7,15.1c-4.1-0.4-7.6-0.8-11.4-1.1c-2-3.4-4.2-6.9-6.5-10.5c-1.3-1.9-2.8-3.4-5.4-3c0.6,4.2,1.2,8.4,1.4,12.7
				c-3.4-0.2-6.5-0.4-9.8-0.5C100.9,205.6,98.2,195,97.6,184z M108.1,191.2c0.3,2.2,0.5,4.2,0.9,6.6c2.1,0,4.2,0.2,6.3,0.1
				c1.8-0.1,2.6-1.2,2.4-2.8c-0.2-1.7-1.4-3.1-3.4-3.4C112.2,191.3,110.2,191.3,108.1,191.2z"/>
			<path d="M157.8,197.5c-3.1,0.1-6,0.1-9.1,0.1c-0.9-2.7-2.6-4.3-5.3-4.6c-1.7-0.2-3.1,0.2-3.5,2c0.3,1.6,1.5,2.2,2.8,2.6
				c2.4,0.8,4.8,1.5,7.3,2.3c1.3,0.4,2.7,1,4,1.6c8.3,3.8,9.1,12.8,3.9,16.6c-1.7,1.2-4,2-6.2,2.3c-3.6,0.4-7.3,0-10.9-1.3
				c-4.8-1.7-8.1-5.9-9-11.2c3,0.1,5.9,0.3,9.1,0.4c0.3,0.7,0.5,1.3,0.8,1.8c1.6,3.1,5,4.9,7.9,3.9c1.3-0.4,2.1-1.3,2-2.8
				c-0.1-1.4-1.1-2.4-2.4-3c-1.1-0.5-2.3-0.9-3.5-1.3c-2.4-0.9-4.9-1.6-7.2-2.7c-4.5-2.1-7.2-5.5-7.5-9.1c-0.4-4,2.1-7,6.6-7.8
				c4.2-0.7,8.4-0.4,12.7,1.1C154.5,190.1,156.7,192.8,157.8,197.5z"/>
		</g>
		<path class="st16" d="M201,270.8c-0.8-1-3.5-2.3-4.7-2.2c-2.7,0.2-6,5.1-5.9,7.5c0.1,3.9,4.2,6.3,7.8,6.5c4,0.3,8.4-3.6,10.5-6.9
			c3.5-5.6-1.8-12-7.9-8.9c-5.1,2.6-4.3,7.9-3.1,12.5"/>
		<g>
			<path class="st17" d="M176.3,329.3c-3.8-0.4-3.9-2-3.8-4.2c1.7-29.4,7.5-45.1,19.6-52.5c1.9-1.1,4.3-0.6,5.5,1.3
				c1.2,1.9,0.6,4.3-1.3,5.5c-9.5,5.8-13,18.3-9.4,53C187.1,334.6,182.5,330,176.3,329.3z"/>
		</g>
		<g>
			<path class="st17" d="M212.6,318.3c1.4-27.3-1-36.1-10.7-40.3c-2-0.9-2.9-3.3-2-5.3c0.9-2,3.3-2.9,5.3-2
				c14.4,6.3,18.2,21,20.5,47.7c0.2,2.2,0,3.6-3.6,4.3c-6.4,1.3-6.7,5.6-8.3,4.9C212,326.8,212.4,321.6,212.6,318.3z"/>
		</g>
		<path class="st3" d="M186.6,278.2c-3,0.1-5.9,0.1-9,0.1c-42.7,0-89.9-7.2-115.8-19.3c-2-0.9-2.9-3.3-1.9-5.3
			c0.9-2,3.3-2.9,5.3-1.9c26.7,12.5,79.1,19.6,123.1,18.3"/>
		<path class="st3" d="M213,268.4c6.3-0.7,12.2-1.7,17.6-2.9c2.2-0.5,4.3,0.9,4.8,3c0.5,2.2-0.9,4.3-3,4.8
			c-6.1,1.4-12.2,2.4-19.3,3.2"/>
		<path class="st3" d="M212,266.4c7.9-2.3,13.9-4.7,17.6-6.8c1.9-1.1,4.4-0.3,5.4,1.6c0.9,1.7,0.5,3.9-1,5"/>
		<path class="st15" d="M217.8,71.2L217.8,71.2c-1.2-3.8-2.8-7.5-5-11.1c-2.9-5-6.5-8.9-10.8-12c2.3,1.2,8.3-1.9,7.1-5.6
			c-0.1-0.4-1.2,1-4,1c-2.7-0.1-4.3-1.2-4.4-1.4c-0.2-0.5,0.9-0.6,1.5-0.6c7.2-0.8,10.9-9.5,2.9-14.5c-0.2-0.2-1.1,3.2-3.2,4.7
			c-2.8,2-7,2.2-7,1.2c6.1-4,2.9-14.1-5.7-15.7c-0.2,0,1.4,8.5-8.2,10.2c1-5.8-0.9-11.1-5-14.3c-7.9-6.2-18.1-1.5-18.3-1.4
			c-0.9,0.4,4.9,2.6,5.2,8c0.2,4.1-2.6,6.4-5.3,7c-0.6,0.1-1.9,0.2-1.9,0.2s2.9-5.8-3.6-6.9c-0.1,0,0.7,2.5-0.4,4.2
			c-1.1,1.6-4.1,2.3-5.5,2.9c-7.6,2.8-15.2,4.7-22.4,8.2c-36.2,16.9-57,50.5-61,103.5c11.6,4.4,23.2,9,34.3,14.2
			c-0.5-11.4-0.1-25.3,2.1-42c7.2-54.9,35.6-68.6,65.8-64.9c27,3.4,47.6,20.4,55.1,36.1C219.7,78.6,219,74.9,217.8,71.2z"/>
		<path class="st3" d="M184,280.1c-4.2,0.5-8.5,0.9-13.1,1.2c-5.6,0.4-11.2,0.6-16.9,0.6c-29.9,0-61.3-5.1-91.7-15
			c-2.1-0.7-3.3-2.9-2.6-5c0.4-1.3,1.4-2.2,2.7-2.6"/>
		<path class="st3" d="M198.5,286.6c-0.3,0-0.5,0-0.8,0c-5.5-0.4-11.3-4.2-11.5-10.5c-0.1-4.1,4.4-11.2,9.7-11.5c0.2,0,0.5,0,0.7,0
			c0.6-0.5,1.3-1,2.1-1.4c4.3-2.2,9.1-1.5,12.2,1.9c3.1,3.4,3.5,8.5,0.9,12.7C209.2,282.2,203.9,286.6,198.5,286.6z"/>
		<path class="st3" d="M196.7,264.6c4.4,0,12.2,4,8.2,12.7"/>
		<path class="st3" d="M196.7,271.9c-5.1,3.8-4.9,14.4,9.3,12.1"/>
		<path class="st3" d="M191,284.3c-5.4,7.4-6.9,21-4.1,48.2c0.2,2.1-4.4-2.5-10.6-3.2c-3.8-0.4-3.9-2-3.8-4.2
			c1.4-24.3,5.6-39.2,13.8-47.8"/>
		<path class="st3" d="M212.9,275.9c8.1,7.9,10.8,21.5,12.7,42.4c0.2,2.2,0,3.6-3.6,4.3c-6.4,1.3-6.7,5.6-8.3,4.9
			c-1.6-0.7-1.3-5.9-1.1-9.2c1-20.2,0-30.2-4.5-35.8"/>
		<path class="st0" d="M108.9,167.3c-5.8-1.9-12.8-4.5-17.8-7.5c-0.5-5.1-1-10.3-1.6-15.4c4.7,4,14.1,7.3,18.6,9.5
			c0,0,0.1,0.1,0.1,0.1C108.2,158.9,108.5,163.3,108.9,167.3z"/>
		<g>
			<g>
				<path class="st1" d="M58.8,170.2c-29,26.4-56.8,8.2-43.9-21.9c6.8-15.8,20.5-27,29.7-33.7c22.7-16.6,38.1-47.5,55.5-61
					c6.8-1.4,13.5-1.3,18.2,0.1c-8.5,25.3-15.5,44.4-26.7,66.7C79.4,144.6,70.6,159.5,58.8,170.2z"/>
				<path class="st3" d="M58.8,170.2c-29,26.4-56.8,8.2-43.9-21.9c6.8-15.8,20.5-27,29.7-33.7c22.7-16.6,38.1-47.5,55.5-61
					c6.8-1.4,13.5-1.3,18.2,0.1c-8.5,25.3-15.5,44.4-26.7,66.7C79.4,144.6,70.6,159.5,58.8,170.2z"/>
				<path class="st15" d="M110.5,76.3c-5.6,15.2-11.2,28.9-18.9,44.1c-12.1,24.2-21,39-32.8,49.8c-29,26.4-56.8,8.2-43.9-21.9
					c6.8-15.8,20.6-27,29.7-33.7c22.7-16.6,38.1-47.5,55.5-61c6.8-1.4,13.5-1.3,18.2,0.1c-0.8,2.3-4.8,5.4-10.5,5.4
					C101.6,59.2,100.6,66.7,110.5,76.3z"/>
			</g>
			<g>
				<g>
					<g>
						<polygon class="st11" points="133.1,37.8 133.4,53.6 51.2,54.7 50.9,39 						"/>
						<polygon class="st18" points="65.7,46.7 62,53 58.1,46.8 61.8,40.5 						"/>
						<polygon class="st18" points="75.2,46.6 71.5,52.9 67.6,46.7 71.3,40.3 						"/>
						<polygon class="st18" points="84.7,46.4 81,52.8 77.1,46.5 80.8,40.2 						"/>
						<polygon class="st18" points="94.2,46.3 90.5,52.6 86.6,46.4 90.3,40 						"/>
						<polygon class="st18" points="103.7,46.2 100.1,52.5 96.1,46.3 99.8,39.9 						"/>
						<polygon class="st18" points="113.3,46 109.6,52.4 105.6,46.1 109.3,39.8 						"/>
						<polygon class="st18" points="122.8,45.9 119.1,52.2 115.2,46 118.8,39.6 						"/>
						<polygon class="st18" points="133.2,45.8 129.1,53.7 124.7,45.9 128.9,37.9 						"/>
						
							<rect x="88.6" y="9.5" transform="matrix(-1.612637e-02 -0.9999 0.9999 -1.612637e-02 51.7728 143.5133)" class="st3" width="15.7" height="73.5"/>
						<g>
							<path class="st18" d="M51.8,38l6.9-0.1c0.7,0,1.2,2.5,1.5,5.6c0.1,1,0.1,2.2,0.1,3.3c0,1.9,0,3.7-0.2,5.2
								c-0.2,2.2-0.6,3.7-1.2,3.7l-6.9,0.1c-0.5,0-0.9-1.5-1.1-3.7c-0.2-1.5-0.3-3.4-0.3-5.2c0-1.1,0-2.2,0-3.3
								C50.8,40.6,51.2,38.1,51.8,38z"/>
							<path class="st19" d="M50.7,47l9.7-0.2c0,1.9,0,3.7-0.2,5.2L51,52.2C50.8,50.7,50.7,48.8,50.7,47z"/>
							<path class="st15" d="M51.8,38l6.9-0.1c0.7,0,1.2,2.5,1.5,5.6l-9.5,0.2C50.8,40.6,51.2,38.1,51.8,38z"/>
							<path class="st3" d="M51.8,38l6.9-0.1c2,0,2.3,17.8,0.3,17.8l-6.9,0.1C50.4,55.9,50.1,38.1,51.8,38z"/>
						</g>
					</g>
					<path class="st18" d="M372.3,54.4c4.2,1.5,14.2,14.1,9.9,13.1c-83.2-19.4-248.2-12.8-248.2-12.8l-0.3-17.8
						C133.6,36.8,304.3,29.5,372.3,54.4z"/>
					
						<linearGradient id="SVGID_1_" gradientUnits="userSpaceOnUse" x1="3253.6646" y1="-24.1054" x2="3428.8135" y2="-201.5523" gradientTransform="matrix(-0.6624 -0.7492 0.7492 -0.6624 2556.624 2480.7996)">
						<stop  offset="0" style="stop-color:#FFFFFF;stop-opacity:0"/>
						<stop  offset="1" style="stop-color:#FFFFFF;stop-opacity:0.8"/>
					</linearGradient>
					<path class="st20" d="M133.6,36.8c0,0,1.1-0.1,3.1-0.1l0.2,13.7c0,0,162.7-7.4,246,12c0.9,2.8,0.8,5.5-0.8,5.1
						c-83.2-19.4-248.2-12.8-248.2-12.8L133.6,36.8z"/>
				</g>
				<g>
					<path class="st18" d="M136.2,22.3c0.1,5.8,3.5,14.6,3.6,23.3c0.1,8.7-3,17.3-2.9,23.1c0.1,6.1-6.9,6.2-7,0.1
						c-0.1-5.8-3.4-14.4-3.5-23c-0.1-8.8,2.9-17.6,2.8-23.4C129.1,16.8,136.1,16.6,136.2,22.3z"/>
					<path class="st21" d="M130.6,50.1c0-1.3,0-2.6,0.1-3.8c0-1,0.7-1.4,1.4-1.5c0.9-0.1,1.5,0.3,1.8,1.2c0,0,0,0.1,0.1,0.2
						c0.6-1.1,1.7-1.2,2.6-1.9c0,0.7,0,1.4,0,2.1c-0.6,0.3-1.2,0.7-1.8,1c-0.3,0.2-0.6,0.4-0.5,0.9c0.8,0,1.5,0,2.4,0
						c0,0.6,0,1.2,0,1.8C134.6,50.1,132.6,50.1,130.6,50.1z M131.8,48.3c0.4,0,0.8,0,1.2,0c0-0.4,0-0.8-0.1-1.2
						c0-0.3-0.3-0.5-0.6-0.5c-0.3,0-0.5,0.2-0.6,0.5C131.8,47.5,131.8,47.9,131.8,48.3z M130.7,40.5c-0.2,0.8-0.2,1.6,0,2.3
						c0.2,0.8,0.8,1.3,1.6,1.4c0.7,0,1.2-0.4,1.6-1.2c0.2-0.4,0.3-0.8,0.4-1.3c0.1-0.2,0.1-0.4,0.2-0.6c0.1-0.2,0.3-0.4,0.5-0.4
						c0.3,0,0.4,0.2,0.5,0.4c0.2,0.6,0,1.2-0.6,1.4c-0.1,0-0.2,0.1-0.3,0.1c0,0.6,0.1,1.1,0.1,1.7c1,0,1.7-0.6,1.9-1.5
						c0.2-0.7,0.2-1.3,0.1-2c-0.1-0.4-0.2-0.8-0.5-1.2c-0.7-1-2.4-1.1-3.1,0.3c-0.1,0.2-0.2,0.5-0.3,0.7c-0.1,0.4-0.2,0.9-0.3,1.3
						c-0.1,0.2-0.2,0.4-0.4,0.5c-0.3-0.1-0.4-0.4-0.4-0.7c0-0.5,0.3-0.8,0.8-0.9c0-0.6-0.1-1.1-0.1-1.7
						C131.4,39.3,130.9,39.7,130.7,40.5z"/>
					<path class="st15" d="M136.2,22.3c0.1,5.8,3.5,14.6,3.6,23.3c0.1,8.6-3,17.3-2.9,23.1c0.1,4-2.9,5.4-5,4.2
						c1.1-0.7,1.9-2.1,1.9-4.2c-0.1-5.8,3-14.5,2.9-23.1c-0.1-8.7-3.5-17.5-3.6-23.3c0-2-0.9-3.2-2-3.8
						C133.2,17.4,136.2,18.6,136.2,22.3z"/>
					<path class="st19" d="M130.4,45.8c0.1,8.6,3.1,27.8,2.1,27.4c-1.4-0.5-2.5-1.9-2.5-4.3c-0.1-5.8-3.4-14.4-3.5-23
						c-0.1-8.7,2.9-17.6,2.8-23.4c0-2,0.8-3.3,1.9-3.9C132.2,17.9,130.3,37,130.4,45.8z"/>
					<path class="st3" d="M136.2,22.3c0.1,5.8,3.5,14.6,3.6,23.3c0.1,8.7-3,17.3-2.9,23.1c0.1,6.1-6.9,6.2-7,0.1
						c-0.1-5.8-3.4-14.4-3.5-23c-0.1-8.8,2.9-17.6,2.8-23.4C129.1,16.8,136.1,16.6,136.2,22.3z"/>
				</g>
			</g>
			<g>
				<path class="st1" d="M213.8,185.1c-26,2.2-86.6-11.8-105.2-31.1c-4.2-4.4-13.6-22.8-22.1-54.2c-3.6-13.1-9.6-29.1-12.7-32.3
					c-5.6-5.8-9.2-11.7-9.9-19.2c-0.6-6.4,0.2-10.6,1.9-12.9c1.8-2.4,4.8-5,10.4-3.6c3.2-1.5,7.9-0.2,9,1c3.6,4.4-0.8,7.7,1.8,13.9
					c2.5,6.2,1.9,8.2,5.5,14.6c3.1,4.7,12.3,15.9,26.6,34.6c10.9,14.3,18.8,22.7,21.8,25.9c7.9,8.4,27.2,5.6,47.8,7.1
					c10.5,0.7,26.2,1.3,37.6,10.1C244.7,153.3,248.8,182.2,213.8,185.1z"/>
				<path class="st2" d="M89.8,56.3c-4-0.2-7.6,0.6-10.5,2.8c-2.4,1.8-4.4,4.5-5.5,8.3c-0.7-0.7-1.4-1.4-2-2.2
					c-4.4-5-6.8-10.1-7.4-16.7c-0.6-6.2-0.7-10.7,1.8-13.7c0.1-0.1,0.2-0.3,0.3-0.4c1.3-1.4,3.6-2.9,6.3-3.1c1,0,2.1,0.1,3.4,0.4
					c2.1-1,4.9-0.8,6.9-0.2c0.1,0,0.1,0,0.2,0.1c2.6,1.1,3.3,3.1,3.4,5.6c-0.1,2.6-0.2,4.8,0.3,9.4C87.2,50.1,88.1,52.8,89.8,56.3z"
					/>
				<path class="st3" d="M213.8,185.1c-26,2.2-86.6-11.8-105.2-31.1c-4.2-4.4-13.6-22.8-22.1-54.2c-3.6-13.1-9.6-29.1-12.7-32.3
					c-5.6-5.8-8.7-11.4-9.5-18.9c-0.6-6.5-0.7-11.1,2.1-14.1c1.8-2,5.7-4.1,9.7-2.7c2.5-1.4,5.8-0.7,7-0.1c5.2,2.3,2.7,7.7,3.7,15
					c0.6,4.9,1.9,8.2,5.5,14.6c3.1,4.7,12.3,15.9,26.6,34.6c10.9,14.3,18.8,22.7,21.8,25.9c7.9,8.4,27.2,5.6,47.8,7.1
					c10.5,0.7,26.2,1.3,37.6,10.1C244.7,153.3,248.8,182.2,213.8,185.1z"/>
			</g>
			<g>
				<path class="st2" d="M106.5,56.2c2.4,0.9,20.3-1.8,18.6-22.5c-0.2-3.5-5.1-5.9-12.2-1.8c-3.3-2.3-6.9-4.3-11-1.8
					s0.3,5.3,1.2,10.8C104,46.5,101.1,54.1,106.5,56.2z"/>
				<path class="st3" d="M106.5,56.2c2.4,0.9,20.3-1.8,18.6-22.5c-0.2-3.5-5.1-5.9-12.2-1.8c-3.3-2.3-6.9-4.3-11-1.8
					s0.3,5.3,1.2,10.8C104,46.5,101.1,54.1,106.5,56.2z"/>
				<path class="st3" d="M112.8,31.9c2.8,8.4,2.2,14-6.4,24.3"/>
			</g>
			<g>
				<path class="st12" d="M124.9,96.7c1.6-3.5,11.8,20.2,21,24.9c9.2,4.7,50.6-0.5,75,12.5c24.3,13,24.3,29.1,20,38.8
					s-13.2,15.1-31.4,23.5c-24.5,11.2-58.6,19.7-91.4,8.5C123.2,168.1,109.9,129,124.9,96.7z"/>
				<g>
					<path class="st12" d="M118.3,204.6c-4.3-12.9-9-27.8-9.7-50.8c2.6,2.7,6,5.3,10.1,7.7C119.5,175.9,120.3,190.4,118.3,204.6z"/>
					<path class="st22" d="M118.3,204.6c-4.3-12.9-9-27.8-9.7-50.8c2.6,2.7,6,5.3,10.1,7.7C119.5,175.9,120.3,190.4,118.3,204.6z"/>
				</g>
			</g>
			<g>
				<path class="st12" d="M24.1,185.4c-8.7-3.8-17.6-7.4-12.6-33.6c5-26.2,36.6-49.4,56-65.3c13.5-2.2-1,61.8,24.5,118.9
					C73.3,205.4,46.1,194.9,24.1,185.4z"/>
				<g>
					<path class="st12" d="M92.2,205.1c-8.8-19.7-12.8-40.2-14.9-58.5c3.4-5.6,6.9-11.9,10.6-19.1C91.1,153.3,95.1,186.8,92.2,205.1
						z"/>
					<path class="st22" d="M92.2,205.1c-8.8-19.7-12.8-40.2-14.9-58.5c3.4-5.6,6.9-11.9,10.6-19.1C91.1,153.3,95.1,186.8,92.2,205.1
						z"/>
				</g>
			</g>
			<path class="st3" d="M108.6,154c0.5,24,5.3,37.6,9.7,50.9c5.1-36.8-8.2-75.8,6.8-108.2c1.6-3.5,11.8,20.2,21,24.9
				c9.2,4.7,50.6-0.5,75,12.5c24.3,13,24.3,29.1,20,38.8c-4.3,9.7-13.2,15.1-31.4,23.5c-24.5,11.2-58.6,19.7-91.4,8.5"/>
			<path class="st3" d="M92.1,205.4c-18.6,0-45.8-10.4-67.9-20c-8.7-3.8-17.6-7.4-12.6-33.6s36.6-49.4,56-65.3
				C81.1,84.3,66.6,148.3,92.1,205.4c3-18.9-1.1-51.5-4.3-77.5"/>
		</g>
		<path class="st3" d="M109.4,167.4c-5.9-1.9-12.8-4.5-17.9-7.5"/>
		
			<linearGradient id="SVGID_00000179605013267046117700000009900646204535897481_" gradientUnits="userSpaceOnUse" x1="208.3668" y1="105.9379" x2="315.0375" y2="-2.1323">
			<stop  offset="0" style="stop-color:#FFFFFF;stop-opacity:0"/>
			<stop  offset="1" style="stop-color:#FFFFFF;stop-opacity:0.8"/>
		</linearGradient>
		<path style="fill:url(#SVGID_00000179605013267046117700000009900646204535897481_);" d="M382.3,67.5c-2.1-3.6-7.3-9.1-10-10.1
			c-59.7-21.8-198.7-18.8-231.6-17.8c-0.1-1-0.3-2-0.5-3c31.9-1,172.1-4.1,232.1,17.8C376.4,55.9,386.4,68.3,382.3,67.5z"/>
		<path class="st3" d="M87.7,128c-3.7,7.1-7.1,13.3-10.4,18.8"/>
		<path class="st3" d="M118.5,161.7c-4-2.5-7.5-5.1-10.1-7.8"/>
		<path class="st3" d="M73.8,67.5c2.5-8.3,8.7-11.5,16-11.1"/>
		<path class="st3" d="M79.3,59.2c-6.9-9.9-6.8-20.7-3.2-27.3"/>
		<path class="st3" d="M138.8,36.6c29-1,172.5-4.5,233.5,17.7c4.2,1.5,14.2,14.1,9.9,13.1c-74.5-17.3-214.7-13.9-243.1-13"/>
		<path class="st15" d="M92.7,205.4c-18.6,0-45.8-10.4-67.9-20c-8.2-3.6-16.6-6.9-13.4-29.1c7,19.4,57.1,33,61.6,28.7
			c5-4.8,1.2-20.4-0.9-44.1c-1.5-17.6,1.5-33.1,2.1-44.3C76.9,116.5,73.7,162.9,92.7,205.4z"/>
		<path class="st15" d="M241.1,172.8c-4.3,9.7-13.2,15.2-31.4,23.5c-24.5,11.2-58.6,19.7-91.4,8.5c4.4-31.9-4.9-65.5,2.2-94.9
			c-0.4,14.6,0.9,35.4,2.5,45.4c1.9,11.9,3.6,31,11,35.9c7.4,4.9,42.1,0.2,68.5-10.2c21.9-8.7,35.4-21.7,35.8-32.8
			C244.9,157.3,243.9,166.5,241.1,172.8z"/>
		<path class="st15" d="M131.6,104.2c2.3,3.9,8.1,18.5,8.5,22.2c0.4,3.7,1.2,12.5,1.5,20.4c0.8-7.4,1.8-18.7,2.9-20.4
			c1.1-1.7,5.4-3.3,11.4-2.9c-7.4-1-9.8-1.4-12.1-3.5C141.4,117.8,134.5,109.3,131.6,104.2z"/>
		<path class="st15" d="M118.5,161.7c-4-2.4-7.3-5-9.9-7.7c-4.2-4.4-13.6-22.8-22.1-54.2c-3.6-13.1-9.6-29.1-12.7-32.3
			c-5.6-5.8-9.2-11.7-9.9-19.2c-0.6-5.8,0-9.8,1.4-12.2c0.2-0.3,0.3-0.5,0.5-0.7c0.6-0.8,1.3-1.6,2.2-2.2c0.1-0.1,0.2-0.2,0.4-0.2
			c0.7-0.5,1.5-0.9,2.5-1.2c0,0,0,0,0.1,0c1.5-0.4,3.2-0.4,5.3,0.1c2.6-1.2,6-0.6,7.9,0.2c0,0,0,0,0,0c1.9,1.2,2.4,2.9,2.6,5.1v0
			c0,0.1,0,0.2,0,0.2c-18-5.2-17.5,11.7-13.7,21.7c0.6,1.7,1.4,3.3,2.2,4.9c4.1,8,10,15.4,16.4,27.5c7.8,14.8,12.7,31.7,17.2,41.7
			c4.1,9.2,7.6,6.7,8.9-1.2C117.3,141.8,117.9,151.7,118.5,161.7z"/>
		<path class="st15" d="M125,39c-3.7-5.2-15.4-2.7-18.6-1c-1.5,0.8-2.5,2.2-3.3,4c0-0.3-0.1-0.7-0.1-1c-0.9-5.6-5.3-8.4-1.2-10.8
			c4.1-2.5,7.7-0.5,11,1.8c7.2-4.1,12-1.6,12.2,1.8C125.2,35.6,125.2,37.4,125,39z"/>
		<path class="st3" d="M89.8,144.4c4.7,4,14.3,7.4,18.7,9.6"/>
		<path class="st15" d="M96.4,251.5c-10.9-2.7-21.8-5.8-32.7-9.3c-0.1,0-0.2-0.1-0.3-0.1c-0.1-0.3-0.1-0.6-0.2-0.9
			c-13.7-7.6-4.8-33.8-8-43.5c21.3,7.6,37.1,8.1,37.1,8.1h0.2c0-0.1,0-0.2,0-0.3c0.1-0.5,0.4-2.7,0.4-3.4c0.1-1.2,0.2-2.5,0.3-3.9
			c0.1-1.3,0.2-4.2,0.2-4.2c0-0.7,0-1.4,0.1-2.1c0-3.6,0-7.4-0.2-11.3c-0.3-6.4-0.8-13.3-1.4-20.2c2.7,1.6,5.8,3,9,4.2
			c-3.8,4.1-7.6,16-8.4,40.7c-1.2,2.2-2.5,1.4-6.6,5.9C81.9,215.7,77.3,244.7,96.4,251.5z"/>
		<path class="st15" d="M232.7,384.8C232.7,384.8,232.6,384.8,232.7,384.8c-0.8,0.2-1.8-0.2-3-1.1c-2.4-1.9-18.4-10-33.2-16.7
			c-1.7-0.7-3.3-1.5-5-2.3c0,0,0,0-0.1,0c-5.4-2.6-10.5-5.4-13.6-8.1c-0.2-0.2-0.4-0.4-0.6-0.5c-0.2-0.2-0.5-0.5-0.7-0.7
			c-0.1-0.1-0.2-0.2-0.3-0.4c-0.1-0.1-0.2-0.2-0.3-0.4c-0.1-0.1-0.2-0.3-0.3-0.4c-0.4-0.7-0.7-1.3-0.8-2c12.3,0.5,26-2.2,37.2-5.5
			c-0.2,0.2-0.4,0.5-0.6,0.7c0,0,0.1,0.1,0.1,0.1l0,0c1.4,1.3,2.8,2.7,4.2,4.1c-16.5-2.2-26,5.1-22.3,9.1c0.3,0.3,3.3-0.4,3.9-0.2
			c0,0-2.6,1-2.6,1c3.9,2.2,16.9,3.7,26.9,8.6c4,2,8,4.3,11.4,7.1c0.1,0.4,0.2,0.8,0.3,1.2C234.4,382.2,233.9,384.3,232.7,384.8z"/>
		<path class="st15" d="M99.3,374.6c-0.5,1.3-1,2.7-1.5,4.2c-0.4,1.2-0.7,2.4-1.1,3.8c-0.3-2.3-5-6.3-14-9.1
			c-8.2-2.6-12.7,1.4-10.5,9.2v0c0.4,1.4,1,2.9,1.8,4.5c2.3,4.5,4.3,10.4,5.5,16.6c1.1,5.5,1.7,11.3,1.4,16.7
			c-1.3,1.7-2.7,3.5-4.2,5.3c0,0,0,0,0,0c-4.3-21.8-12.2-31.2-14.4-40.9c0,0,0-0.1,0-0.1c-0.4-1.7-0.6-3.4-0.6-5.2
			c0.1-5,1.8-10.8,3.8-16.4C74.9,367.9,86.9,371.6,99.3,374.6z"/>
		<path class="st15" d="M157,331.1c-5.4,0.3-16,31-26.9,50.4c-8.9-1.6-18.5-3.5-28-5.7c10.6,0.9,22.1-0.9,26.3-7.1
			C141.9,348.6,148.9,331.5,157,331.1z"/>
		<path class="st15" d="M206.4,348.2c-14.3,3.7-31.2,5.8-44.2,2c1-7.5,0.4-19.2-4.5-19.7c6.7,0,7.9,6.8,8.4,9.8
			c0.4,3-0.2,7.7,7.9,8.7C180.6,349.8,193.2,350,206.4,348.2z"/>
	</g>
	<path class="st0" d="M345.7,51c-2.6,0.5-2.7,2.7-2.9,6.1c-0.2-3.5-0.4-5.7-2.9-6.1c2.6-0.5,2.7-2.8,2.9-6.1
		C343,48.2,343.2,50.4,345.7,51z"/>
</g>
</svg>
